<svg width="28" height="28" viewBox="0 0 28 28" fill="none" xmlns="http://www.w3.org/2000/svg">
<path fill-rule="evenodd" clip-rule="evenodd" d="M23.8994 4.10051C29.3669 9.56783 29.3669 18.4321 23.8994 23.8994C18.4321 29.3669 9.56783 29.3669 4.10051 23.8994C-1.36684 18.4321 -1.36684 9.56786 4.10051 4.10051C9.56783 -1.36683 18.4321 -1.36684 23.8994 4.10051ZM14 6.53333C14.9021 6.53333 15.6334 7.2646 15.6334 8.16667V12.3666H19.8333C20.7354 12.3666 21.4667 13.0979 21.4667 14C21.4667 14.902 20.7354 15.6333 19.8333 15.6333H15.6334V19.8333C15.6334 20.7354 14.9021 21.4667 14 21.4667C13.098 21.4667 12.3667 20.7354 12.3667 19.8333V15.6333H8.16667C7.2646 15.6333 6.53333 14.902 6.53333 14C6.53333 13.0979 7.2646 12.3666 8.16667 12.3666H12.3667V8.16667C12.3667 7.2646 13.098 6.53333 14 6.53333Z" fill="#9A00FF"/>
</svg>
