<svg width="24" height="24" viewBox="0 0 24 24" fill="none" xmlns="http://www.w3.org/2000/svg">
<path d="M7.36469 13.0575C7.33184 13.6694 7.54191 14.2696 7.94921 14.7274C8.35651 15.1853 8.9281 15.4639 9.53969 15.5025C10.1499 15.462 10.7196 15.1826 11.1253 14.725C11.5311 14.2673 11.7401 13.6682 11.7072 13.0575C11.7402 12.446 11.5313 11.8461 11.1258 11.3873C10.7203 10.9284 10.1506 10.6474 9.53969 10.605C8.92745 10.6456 8.35585 10.9257 7.94873 11.3848C7.54162 11.8438 7.33178 12.4448 7.36469 13.0575ZM10.2072 13.0575C10.2072 13.5675 9.89969 14.0025 9.53969 14.0025C9.17969 14.0025 8.86469 13.5675 8.86469 13.0575C8.86469 12.5475 9.17219 12.105 9.53969 12.105C9.90719 12.105 10.2072 12.54 10.2072 13.0575ZM14.4597 10.605C13.8488 10.6474 13.2791 10.9284 12.8736 11.3873C12.468 11.8461 12.2592 12.446 12.2922 13.0575C12.2593 13.6682 12.4683 14.2673 12.874 14.725C13.2797 15.1826 13.8494 15.462 14.4597 15.5025C15.0713 15.4639 15.6429 15.1853 16.0502 14.7274C16.4575 14.2696 16.6675 13.6694 16.6347 13.0575C16.6676 12.4448 16.4578 11.8438 16.0506 11.3848C15.6435 10.9257 15.0719 10.6456 14.4597 10.605ZM14.4597 14.0025C14.0997 14.0025 13.7922 13.5675 13.7922 13.0575C13.7922 12.5475 14.0997 12.105 14.4597 12.105C14.8197 12.105 15.1347 12.54 15.1347 13.0575C15.1347 13.575 14.8272 14.0025 14.4597 14.0025Z" fill="white"/>
<path d="M19.9723 7.89751L19.9198 7.83001V7.75501C18.6179 6.17384 16.8213 5.07738 14.8198 4.64251C14.7228 4.61449 14.6212 4.60634 14.521 4.61853C14.4208 4.63072 14.3241 4.66301 14.2367 4.71347C14.1493 4.76393 14.0729 4.83151 14.0123 4.91218C13.9516 4.99284 13.9078 5.08492 13.8836 5.1829C13.8593 5.28088 13.8551 5.38275 13.8712 5.4824C13.8872 5.58205 13.9233 5.67743 13.9771 5.76283C14.0309 5.84823 14.1014 5.9219 14.1843 5.9794C14.2673 6.03691 14.361 6.07708 14.4598 6.09751C16.1149 6.45236 17.6053 7.34663 18.6973 8.64001C19.7089 10.9617 20.2372 13.4651 20.2498 15.9975C19.2053 16.9717 17.9043 17.6275 16.4998 17.8875V17.505C17.4244 17.1463 18.2912 16.6535 19.0723 16.0425C19.2285 15.9182 19.3288 15.7369 19.3513 15.5386C19.3738 15.3403 19.3166 15.1412 19.1923 14.985C19.068 14.8289 18.8867 14.7285 18.6884 14.706C18.4901 14.6835 18.291 14.7407 18.1348 14.865C16.3743 16.2001 14.208 16.8886 11.9998 16.815C9.80942 16.8765 7.66364 16.1886 5.91731 14.865C5.83999 14.8035 5.75131 14.7577 5.65632 14.7304C5.56133 14.7032 5.4619 14.6949 5.36371 14.706C5.16539 14.7285 4.98413 14.8289 4.85981 14.985C4.73549 15.1412 4.67829 15.3403 4.70079 15.5386C4.7233 15.7369 4.82366 15.9182 4.97981 16.0425C5.75559 16.6534 6.6174 17.1462 7.53731 17.505V17.8875C6.13284 17.6275 4.83183 16.9717 3.78731 15.9975C3.8047 13.464 4.33805 10.9606 5.35481 8.64001C6.44677 7.34663 7.93722 6.45236 9.59231 6.09751C9.77857 6.04369 9.93676 5.91983 10.0337 5.75191C10.1306 5.58399 10.1587 5.38506 10.1122 5.19686C10.0656 5.00865 9.94795 4.84579 9.78391 4.74243C9.61987 4.63908 9.42218 4.60327 9.23231 4.64251C7.23083 5.07738 5.43421 6.17384 4.13231 7.75501C4.13231 7.75501 4.13231 7.80751 4.13231 7.83001L4.07981 7.89751C2.62481 10.8975 2.45981 13.635 2.30231 16.2525C2.29552 16.3587 2.31141 16.4651 2.34891 16.5647C2.38641 16.6642 2.44467 16.7547 2.51981 16.83C4.04413 18.3836 6.07979 19.3321 8.24981 19.5C8.44656 19.4992 8.63511 19.4211 8.77481 19.2825C8.84567 19.2131 8.90205 19.1302 8.94067 19.0388C8.9793 18.9474 8.9994 18.8492 8.99981 18.75V18C10.9732 18.4617 13.0264 18.4617 14.9998 18V18.75C15.0002 18.8492 15.0203 18.9474 15.0589 19.0388C15.0976 19.1302 15.1539 19.2131 15.2248 19.2825C15.3645 19.4211 15.5531 19.4992 15.7498 19.5C17.9412 19.36 20.0057 18.4238 21.5548 16.8675C21.63 16.7922 21.6882 16.7017 21.7257 16.6022C21.7632 16.5026 21.7791 16.3962 21.7723 16.29C21.5923 13.635 21.4273 10.9275 19.9723 7.89751Z" fill="white"/>
<path d="M17.6172 8.79001C17.6627 8.70239 17.6905 8.60665 17.6989 8.50829C17.7073 8.40992 17.6962 8.31086 17.6662 8.21679C17.6363 8.12273 17.588 8.0355 17.5243 7.96011C17.4605 7.88473 17.3825 7.82268 17.2947 7.77751C15.6431 6.99026 13.8287 6.60477 11.9997 6.65251C10.1707 6.60477 8.35633 6.99026 6.70472 7.77751C6.61693 7.82268 6.53893 7.88473 6.47518 7.96011C6.41143 8.0355 6.36319 8.12273 6.33323 8.21679C6.30326 8.31086 6.29217 8.40992 6.30058 8.50829C6.30898 8.60665 6.33673 8.70239 6.38222 8.79001C6.47476 8.96601 6.63339 9.09805 6.82326 9.15712C7.01312 9.21619 7.21867 9.19745 7.39472 9.10501C8.83414 8.43185 10.4114 8.10562 11.9997 8.15251C13.5881 8.10562 15.1653 8.43185 16.6047 9.10501C16.7108 9.16231 16.8292 9.19318 16.9497 9.19501C17.0874 9.1953 17.2226 9.15766 17.3403 9.08622C17.4581 9.01478 17.5539 8.9123 17.6172 8.79001Z" fill="white"/>
</svg>
