<svg width="24" height="24" viewBox="0 0 24 24" fill="none" xmlns="http://www.w3.org/2000/svg">
<path d="M22.515 1.66498H1.48498C0.869977 1.66498 0.375 2.16751 0.375 2.77501C0.375 3.38997 0.869977 3.88499 1.48498 3.88499H1.99498V13.995C1.99498 14.61 2.49751 15.105 3.10501 15.105H10.89V16.665C9.81751 17.1 9.0525 18.1575 9.0525 19.3875C9.0525 21.0075 10.3725 22.335 12 22.335C13.6275 22.335 14.9475 21.0075 14.9475 19.3875C14.9475 18.1575 14.1825 17.1 13.11 16.665V15.105H20.895C21.5025 15.105 22.005 14.61 22.005 13.995V3.88499H22.515C23.13 3.88499 23.625 3.38997 23.625 2.77501C23.625 2.16751 23.13 1.66498 22.515 1.66498ZM12 20.115C11.6025 20.115 11.2725 19.785 11.2725 19.3875C11.2725 18.99 11.6025 18.66 12 18.66C12.3975 18.66 12.7275 18.99 12.7275 19.3875C12.7275 19.785 12.3975 20.115 12 20.115Z" fill="white"/>
</svg>
