<svg width="50" height="50" viewBox="0 0 50 50" fill="none" xmlns="http://www.w3.org/2000/svg">
<rect width="50" height="50" rx="10" fill="#161B22"/>
<g clip-path="url(#clip0_36_1715)">
<path d="M24.9989 16C20.0298 16 16 20.0455 16 25.036C15.998 26.93 16.5912 28.7767 17.6959 30.3152C18.8005 31.8537 20.3607 33.0061 22.156 33.6096C22.606 33.6929 22.7703 33.4139 22.7703 33.1742C22.7703 32.9594 22.7624 32.3912 22.7579 31.6375C20.2548 32.1831 19.726 30.4259 19.726 30.4259C19.3176 29.3819 18.727 29.104 18.727 29.104C17.9091 28.5437 18.7878 28.555 18.7878 28.555C19.6911 28.6191 20.1659 29.4865 20.1659 29.4865C20.9691 30.8669 22.273 30.4686 22.786 30.2369C22.867 29.653 23.0999 29.2548 23.3575 29.0286C21.3595 28.8003 19.258 28.0251 19.258 24.5635C19.258 23.5769 19.609 22.7702 20.185 22.138C20.0916 21.9096 19.7834 20.9905 20.2728 19.7474C20.2728 19.7474 21.0288 19.5044 22.7478 20.6732C23.4821 20.4726 24.2399 20.3704 25.0011 20.3695C25.7624 20.371 26.5202 20.4735 27.2545 20.6744C28.9724 19.5055 29.7273 19.7485 29.7273 19.7485C30.2178 20.9928 29.9095 21.9107 29.8173 22.1391C30.3944 22.7714 30.742 23.578 30.742 24.5646C30.742 28.0352 28.6383 28.7991 26.6335 29.023C26.9564 29.302 27.2444 29.8532 27.2444 30.6959C27.2444 31.9041 27.2331 32.8784 27.2331 33.1742C27.2331 33.4161 27.3951 33.6974 27.8519 33.6085C29.6454 33.0036 31.2037 31.8507 32.3068 30.3126C33.4099 28.7745 34.0022 26.9288 34 25.036C34 20.0455 29.9703 16 24.9989 16Z" fill="white"/>
</g>
<defs>
<clipPath id="clip0_36_1715">
<rect width="18" height="18" fill="white" transform="translate(16 16)"/>
</clipPath>
</defs>
</svg>
