<svg width="48" height="48" viewBox="0 0 48 48" fill="none" xmlns="http://www.w3.org/2000/svg">
<path d="M43.3328 23.1613C43.3328 23.1613 44.7627 21.0771 42.6772 19.6484C40.5943 18.2198 39.1656 20.304 39.1656 20.304L32.5328 29.9773C32.3054 29.5958 32.054 29.2194 31.7762 28.848L40.982 15.4219C40.982 15.4219 42.4107 13.3389 40.3265 11.9103C38.2435 10.4804 36.8149 12.5646 36.8149 12.5646L28.1547 25.1924C27.8326 24.9284 27.5042 24.6657 27.1631 24.4067L37.2014 9.76674C37.2014 9.76674 38.6301 7.68379 36.5471 6.25516C34.4642 4.82526 33.0355 6.90947 33.0355 6.90947L22.9959 21.5482C22.6271 21.3208 22.262 21.1251 21.897 20.9192L31.2785 7.23663C31.2785 7.23663 32.7071 5.15368 30.6229 3.72505C28.5399 2.29515 27.1113 4.37937 27.1113 4.37937L17.1905 18.8463L16.3959 20.0059L15.6823 21.048C21.9324 25.3339 22.5273 33.4004 18.9564 38.6084C18.2414 39.6505 17.2006 38.9368 17.2006 38.9368C21.4865 32.6855 20.1766 25.6611 13.9252 21.3752L15.7719 12.1516C15.7719 12.1516 16.4604 9.72 14.03 9.03158C11.5997 8.34316 10.9113 10.7735 10.9113 10.7735L8.78289 17.0943C7.9391 19.6004 7.04099 22.0977 5.85236 24.4585C2.49615 31.128 4.50078 39.4181 10.8305 43.7583C17.7336 48.4914 27.1694 46.7331 31.9037 39.8299C32.1538 39.4636 32.3635 39.1061 32.5631 38.7486L32.6187 38.7878L43.3328 23.1613Z" fill="#FFB800"/>
<path d="M3.84272 10.1053H1.31641C1.31908 7.77511 2.24593 5.54113 3.89362 3.89345C5.5413 2.24576 7.77528 1.31891 10.1055 1.31624V3.84255C8.4451 3.84456 6.85331 4.50502 5.67925 5.67908C4.5052 6.85314 3.84473 8.44492 3.84272 10.1053" fill="#77B255"/>
<path d="M6.31635 16.4211H3.79004C3.79004 9.45603 9.45657 3.7895 16.4216 3.7895V6.31582C10.8498 6.31582 6.31635 10.8493 6.31635 16.4211Z" fill="#77B255"/>
<path d="M37.8945 46.7368V44.2105C41.684 44.2105 44.2103 41.6842 44.2103 37.8947H46.7366C46.7366 42.9474 42.9472 46.7368 37.8945 46.7368Z" fill="#77B255"/>
<path d="M31.5791 44.2636V41.7373C36.6317 41.7373 41.7374 36.6316 41.7374 31.5789H44.2637C44.2637 39.1579 39.158 44.2636 31.5791 44.2636Z" fill="#77B255"/>
</svg>
