<svg width="1336" height="640" viewBox="0 0 1336 640" fill="none" xmlns="http://www.w3.org/2000/svg">
<path d="M1315.46 292.871C1279.3 198.255 1131.03 82.0128 838.121 69.8479C838.121 69.8479 615.73 59.0348 396.501 75.4231C266.388 85.1496 152.299 114.103 80.1073 155.716C7.91517 197.33 -16.199 248.072 13.0666 296.448C32.0746 327.869 44.9192 360.388 41.394 392.675C35.2589 448.867 38.7888 501.318 175.211 534.829C297.02 564.751 450.32 591.141 596.569 595.763C695.959 598.905 807.419 593.821 903.212 583.478C1391.4 530.763 1351.62 387.488 1315.46 292.871Z" fill="#F4F7FA"/>
<path d="M807.238 407.616C810.296 381.189 810.751 342.083 792.601 302.682C768.798 251.008 733.909 244.227 675.888 171.728C639.202 125.887 614.061 93.5263 622.514 57.6978C629.137 29.6209 655.598 2.7761 683.266 0.211269C706.271 -1.92116 732.804 12.4827 748.323 25.6563C760.972 36.3926 766.973 46.8793 779.743 47.3706C792.794 47.8725 797.52 37.3436 808.617 36.5054C831.122 34.8053 851.344 75.1121 854.612 81.6265C890.968 154.091 869.841 241.564 860.166 279.609C852.166 311.066 837.181 356.642 807.238 407.616Z" fill="url(#paint0_linear_36_1555)"/>
<mask id="mask0_36_1555" style="mask-type:luminance" maskUnits="userSpaceOnUse" x="620" y="0" width="256" height="408">
<path d="M807.238 407.616C810.296 381.189 810.751 342.083 792.601 302.682C768.798 251.008 733.909 244.227 675.888 171.728C639.202 125.887 614.061 93.5263 622.514 57.6978C629.137 29.6209 655.598 2.7761 683.266 0.211269C706.271 -1.92116 732.804 12.4827 748.323 25.6563C760.972 36.3926 766.973 46.8793 779.743 47.3706C792.794 47.8725 797.52 37.3436 808.617 36.5054C831.122 34.8053 851.344 75.1121 854.612 81.6265C890.968 154.091 869.841 241.564 860.166 279.609C852.166 311.066 837.181 356.642 807.238 407.616Z" fill="white"/>
</mask>
<g mask="url(#mask0_36_1555)">
<g opacity="0.5">
<path d="M799.551 432.961L798.462 432.358C815.928 400.815 828.21 370.428 834.969 342.043C844.939 300.169 842.492 263.867 827.698 234.145C816.113 210.869 797.557 192.32 771.876 166.647C751.376 146.155 735.001 133.481 720.552 122.299C701.69 107.701 686.791 96.17 671.626 73.9991C656.234 51.4968 645.653 25.1356 640.175 -4.35189L641.4 -4.57941C646.845 24.7369 657.36 50.938 672.654 73.2965C687.708 95.3052 702.539 106.783 721.315 121.314C735.792 132.519 752.201 145.218 772.756 165.767C797.552 190.554 817.137 210.132 828.813 233.59C843.74 263.58 846.219 300.166 836.18 342.331C829.395 370.827 817.072 401.319 799.551 432.961Z" fill="white"/>
<path d="M757.583 151.739L756.909 151.94C756.709 152 736.573 157.898 709.184 155.211C693.099 153.633 677.685 149.449 663.372 142.775C645.483 134.433 629.276 122.158 615.202 106.292L616.133 105.465C630.094 121.204 646.164 133.377 663.898 141.646C678.083 148.261 693.36 152.407 709.305 153.972C733.648 156.36 752.164 151.921 755.873 150.935C734.107 100.806 734.362 57.6423 738.429 30.2101C742.857 0.337107 752.648 -17.8692 752.746 -18.0496L753.84 -17.4534C753.742 -17.2744 744.041 0.779434 739.652 30.4515C735.602 57.8294 735.377 100.984 757.301 151.095L757.583 151.739Z" fill="white"/>
<path d="M812.54 207.031C812.299 207.417 812.056 207.795 811.808 208.17L811.559 208.547L811.123 208.427C810.8 208.338 778.409 199.469 744.195 196.934C710.118 194.41 661.176 224.919 660.685 225.228L660.022 224.174C660.516 223.863 709.806 193.139 744.288 195.693C776.456 198.076 807.013 206.037 811.015 207.108C828.713 179.744 825.642 126.368 819.911 86.3227C813.66 42.654 802.994 4.97377 802.887 4.59842L804.085 4.25726C804.192 4.6333 814.878 42.3826 821.141 86.1324C824.822 111.842 826.279 134.567 825.472 153.677C824.491 176.897 820.141 194.838 812.54 207.031Z" fill="white"/>
<path d="M874.975 282.108C856.643 311.514 840.058 329.425 839.878 329.619L839.032 330.526L838.81 329.305C835.789 312.672 828.264 298.979 816.442 288.605C806.971 280.293 794.73 274.072 780.061 270.115C755.035 263.364 731.339 265.586 731.102 265.61L730.98 264.371C731.219 264.347 755.142 262.104 780.385 268.913C795.24 272.92 807.648 279.23 817.264 287.669C829.008 297.975 836.586 311.488 839.802 327.849C843.747 323.44 861.051 303.473 878.783 273.434C897.31 242.049 920.107 192.934 923.502 137.181L930.091 28.9903L931.334 29.066L924.745 137.257C921.334 193.269 898.442 242.586 879.838 274.095C878.211 276.851 876.586 279.525 874.975 282.108Z" fill="white"/>
</g>
</g>
<path d="M815.333 378.241C849.94 363.837 891.455 340.024 923.481 301.026C931.654 291.073 982.143 229.591 958.303 199.436C949.905 188.814 939.377 191.049 927.934 177.024C914.376 160.406 920.48 146.63 916.711 120.337C914.462 104.648 907.88 58.7338 875.272 45.6274C855.786 37.7954 827.888 42.0333 811.296 54.9778C786.959 73.9648 791.717 107.963 800.707 165.462C808.675 216.432 817.473 226.035 822.608 262.766C826.419 290.028 827.79 329.209 815.333 378.241Z" fill="url(#paint1_linear_36_1555)"/>
<mask id="mask1_36_1555" style="mask-type:luminance" maskUnits="userSpaceOnUse" x="793" y="41" width="172" height="338">
<path d="M815.333 378.241C849.94 363.837 891.455 340.024 923.481 301.026C931.654 291.073 982.143 229.591 958.303 199.436C949.905 188.814 939.377 191.049 927.934 177.024C914.376 160.406 920.48 146.63 916.711 120.337C914.462 104.648 907.88 58.7338 875.272 45.6274C855.786 37.7954 827.888 42.0333 811.296 54.9778C786.959 73.9648 791.717 107.963 800.707 165.462C808.675 216.432 817.473 226.035 822.608 262.766C826.419 290.028 827.79 329.209 815.333 378.241Z" fill="white"/>
</mask>
<g mask="url(#mask1_36_1555)">
<g opacity="0.5">
<path d="M826.803 360.559C815.195 379.179 800.981 395.191 784.201 408.51C753.739 432.691 716.327 447.46 673.006 452.407L672.864 451.17C715.952 446.25 753.15 431.569 783.427 407.535C823.765 375.515 849.218 327.77 859.075 265.629C869.342 200.905 860.121 136.782 850.578 94.3874C843.964 64.9997 828.617 35.8762 804.966 7.82614L805.918 7.02325C829.699 35.2279 845.134 64.5297 851.793 94.1139C861.36 136.615 870.602 200.905 860.304 265.824C854.492 302.463 843.276 334.136 826.803 360.559Z" fill="white"/>
<path d="M863.638 180.932L863.1 180.625C862.94 180.534 846.915 171.311 829.384 154.273C813.194 138.538 792.359 112.72 785.036 79.0814L786.253 78.8169C793.507 112.14 814.17 137.744 830.227 153.356C845.853 168.549 860.265 177.484 863.182 179.228C911.26 95.3015 881.661 35.2159 871.425 18.7713C871.132 18.3017 871.011 18.1063 870.954 17.9836L872.082 17.4554C872.116 17.5254 872.293 17.8109 872.482 18.1132C882.833 34.7415 912.808 95.5865 863.948 180.395L863.638 180.932Z" fill="white"/>
<path d="M946.044 209.636C945.628 210.304 945.2 210.973 944.755 211.648C937.255 223.051 927.309 233.102 915.194 241.522C900.068 252.033 881.5 260.016 860.005 265.248L859.684 265.326L859.44 265.105C859.018 264.725 816.988 226.296 790.899 160.818L764.562 94.7171L765.718 94.256L792.056 160.357C817.005 222.974 856.571 260.735 860.034 263.96C886.67 257.43 922.683 242.941 943.715 210.964C956.321 191.804 957.549 175.236 957.56 175.071L958.802 175.154C958.791 175.316 957.624 191.061 946.044 209.636Z" fill="white"/>
</g>
</g>
<path d="M701.053 515.394C692.126 512.433 685.454 504.857 683.573 495.545L670.58 431.24L559.436 435.187L545.758 502.179C543.842 511.561 551.51 520.973 560.342 524.429L606.842 542.622C615.491 546.006 624.788 547.354 634.028 546.564L732.299 538.157C735.172 537.911 737.476 535.653 737.81 532.756C738.145 529.859 740.157 526.606 737.418 525.697L701.053 515.394Z" fill="#97A6B7"/>
<path d="M702.152 511.483C693.235 508.559 686.569 501.078 684.69 491.884L671.71 428.387L563.276 432.288L549.611 498.438C547.697 507.702 552.761 516.992 561.584 520.404L608.037 538.369C616.677 541.711 625.964 543.042 635.195 542.261L733.367 533.96C736.237 533.717 738.539 531.487 738.873 528.626C739.207 525.766 737.481 523.065 734.744 522.168L702.152 511.483Z" fill="url(#paint2_linear_36_1555)"/>
<path d="M332.33 473.98C320.277 474.699 310.417 466.88 310.417 456.547V84.1169C310.417 73.7839 320.277 65.8043 332.33 66.3266L892.138 105.082C900.987 105.465 905.735 98.3216 905.735 107.11V423.859C905.735 432.647 898.57 440.224 889.721 440.752L332.33 473.98Z" fill="#97A6B7"/>
<path d="M337.339 473.98C325.286 474.699 315.426 466.88 315.426 456.547V84.117C315.426 73.784 325.286 65.8044 337.339 66.3267L894.73 90.478C903.579 90.8614 910.744 98.322 910.744 107.11V423.859C910.744 432.647 903.579 440.224 894.73 440.752L337.339 473.98Z" fill="white"/>
<path opacity="0.3" d="M894.73 97.9321L337.339 75.002C330.896 74.737 325.657 78.9945 325.657 84.512V374.164V455.985C325.657 461.503 330.896 465.674 337.339 465.305L894.73 433.297C899.473 433.024 903.308 428.982 903.308 424.267V351.859V106.823C903.308 102.108 899.473 98.1273 894.73 97.9321Z" fill="#D8DEE8"/>
<path d="M890.589 406.495L343.38 433.507C337.637 433.79 332.969 429.993 332.969 425.026V89.391C332.969 84.4232 337.637 80.5695 343.38 80.7827L890.589 101.094C894.883 101.254 898.357 104.853 898.357 109.134V398.36C898.357 402.641 894.883 406.283 890.589 406.495Z" fill="#D8DEE8"/>
<path opacity="0.6" d="M836.541 417.699C715.205 420.236 687.918 437.561 653.441 416.802C606.065 388.277 627.641 337.537 581.482 310.92C523.451 277.458 456.545 338.742 426.258 308.864C396.096 279.11 453.073 209.083 420.09 131.024C406.853 99.6986 384.315 79.3527 368.746 67.6874L337.339 66.3267C325.286 65.8044 315.426 73.784 315.426 84.117V456.547C315.426 466.88 325.286 474.699 337.339 473.981L894.73 440.752C903.579 440.224 910.744 432.647 910.744 423.859V418.227C894.038 417.635 868.161 417.038 836.541 417.699Z" fill="white"/>
<path d="M752.277 341.22C751.413 348.777 749.475 357.919 745.626 368.461C737.835 389.788 709.965 393.562 691.531 393.595C681.702 393.612 674.548 392.572 674.548 392.572C674.548 392.572 674.548 392.572 672.242 384.395C673.08 383.557 707.466 376.428 718.302 347.854C729.129 319.28 751.128 316.471 751.128 316.471C751.128 316.471 754.088 325.327 752.277 341.22Z" fill="url(#paint3_linear_36_1555)"/>
<path opacity="0.3" d="M752.276 341.22C751.412 348.777 749.37 357.919 745.521 368.461C737.729 389.788 709.772 393.562 691.321 393.595V393.419C691.321 393.419 715.957 390.476 720.151 379.783C724.344 369.09 724.397 364.687 734.67 359.864C741.086 356.853 747.689 346.085 752.276 341.22Z" fill="url(#paint4_linear_36_1555)"/>
<path d="M776.218 571.316C777.159 572.08 777.332 573.989 777.444 575.236C777.495 575.794 777.52 576.073 777.458 576.269C777.004 577.705 774.219 577.856 769.853 578.302C762.952 579.007 760.899 579.55 760.359 578.523C759.853 577.561 761.077 575.985 761.215 575.812C761.957 574.878 762.867 574.538 764.626 573.959C767.882 572.887 770.081 572.301 770.747 572.123C774.906 571.013 775.601 570.814 776.218 571.316Z" fill="url(#paint5_linear_36_1555)"/>
<path d="M772.114 565.012L771.424 572.876C771.62 573.256 773.957 574.394 775.813 573.418L777.588 565.689L772.114 565.012Z" fill="url(#paint6_linear_36_1555)"/>
<path d="M721.494 570.306C722.621 571.55 722.877 573.842 721.898 574.971C720.934 576.08 719.486 575.248 715.379 575.371C710.979 575.502 709.83 576.541 706.84 575.716C705.632 575.382 703.498 574.573 703.539 573.71C703.568 573.104 704.654 572.79 708.281 571.575C713.43 569.85 713.408 569.756 714.501 569.575C717.248 569.12 720.006 568.663 721.494 570.306Z" fill="url(#paint7_linear_36_1555)"/>
<path d="M718.675 563.129L716.468 570.47C716.635 570.864 718.878 572.177 720.803 571.345L724.081 564.22L718.675 563.129Z" fill="url(#paint8_linear_36_1555)"/>
<path d="M738.283 402.357C737.967 427.027 736.283 454.766 732.244 484.903C728.252 514.688 722.657 541.601 716.554 565.267C719.369 566.024 722.185 566.782 725 567.539C732.144 560.879 741.155 550.393 745.503 535.576C748.201 526.38 747.302 521.654 749.014 510.343C751.739 492.333 757.26 482.897 762.966 468.374C768.094 455.323 774.155 436.17 777.405 410.568C764.364 407.831 751.323 405.094 738.283 402.357Z" fill="#26264F"/>
<path d="M763.698 400.003C765.421 431.38 766.838 463.34 767.913 495.867C768.719 520.275 769.311 544.373 769.704 568.154C772.58 568.509 775.456 568.864 778.332 569.219C781.111 564.045 784.803 556.135 787.331 545.996C790.402 533.681 789.691 526.369 791.038 513.606C792.549 499.292 794.744 496.173 798.633 478.116C806.525 441.469 810.471 423.146 801.667 411.748C798.809 408.047 789.85 398.765 763.698 400.003Z" fill="#26264F"/>
<path d="M805.615 321.146C798.879 319.251 789.008 317.036 776.919 316.353C759.676 315.379 751.055 314.891 744.945 318.997C730.835 328.481 741.759 350.369 735.984 404.628C735.159 412.377 734.974 420.18 734.376 427.95C733.387 440.814 733.162 441.512 734.057 442.816C739.67 450.99 760.611 438.66 791.305 443.534C808.478 446.261 816.267 452.543 820.972 448.012C826.459 442.728 821.752 428.514 817.701 416.279C813.05 402.234 810.178 402.053 807.538 391.476C804.778 380.421 806.447 374.728 806.877 357.294C807.083 348.952 807.039 336.538 805.615 321.146Z" fill="url(#paint9_linear_36_1555)"/>
<g opacity="0.3">
<path d="M763.876 423.009C771.898 422.381 777.102 426.917 784.027 423.382C793.523 418.536 796.574 403.455 795.969 392.782C795.05 376.565 785.789 372.291 787.386 361.808C788.249 356.14 792.296 348.613 806.828 340.924C807.021 347.396 806.984 352.912 806.877 357.294C806.447 374.728 804.778 380.42 807.537 391.476C810.177 402.053 813.05 402.234 817.7 416.278C821.752 428.514 826.459 442.727 820.972 448.012C816.267 452.543 808.478 446.26 791.304 443.534C764.857 439.334 745.661 447.896 737.262 445.119C747.411 428.349 756.616 423.577 763.876 423.009Z" fill="url(#paint10_linear_36_1555)"/>
</g>
<path d="M794.672 322.259C800.401 317.551 811.922 322.88 815.001 324.305C832.175 332.248 847.594 353.654 843.773 376.276C843.2 379.669 840.543 395.538 827.106 403.227C814.982 410.164 798.61 408.38 785.493 398.554C783.7 396.963 781.908 395.373 780.115 393.782C778.351 391.876 776.587 389.969 774.824 388.063C777.596 385.757 782.306 382.43 788.922 380.295C797.644 377.481 803.994 382.531 808.041 378.692C810.834 376.042 810.84 371.362 810.15 368.526C808.76 362.809 803.721 361.201 799.515 357.144C789.633 347.611 787.812 327.896 794.672 322.259Z" fill="url(#paint11_linear_36_1555)"/>
<path d="M780.015 392.459C780.487 392.354 777.719 386.84 775.547 387.476C773.375 388.113 762.749 394.271 761.783 396.807C760.817 399.342 760.817 399.342 760.817 399.342C760.817 399.342 765.452 399.705 768.326 398.739C771.201 397.773 776.183 393.314 780.015 392.459Z" fill="url(#paint12_linear_36_1555)"/>
<path d="M775.631 297.515C775.588 302.627 776.158 306.681 776.698 309.457C777.316 312.638 777.761 313.46 778.33 314.127C779.185 315.13 780.481 315.972 787.806 317.789C791.792 318.777 792.305 318.75 792.393 319.146C792.823 321.075 781.953 327.652 770.724 326.067C763.851 325.097 757.598 321.176 757.982 319.117C758.369 317.045 765.233 318.157 767.279 314.408C768.703 311.8 767.107 308.097 765.221 305.031C767.048 301.609 773.804 300.937 775.631 297.515Z" fill="url(#paint13_linear_36_1555)"/>
<path d="M780.442 294.096C779.216 291.526 776.866 289.853 773.512 289.103C773.512 289.102 773.512 289.102 773.512 289.101C773.512 289.101 773.574 289.095 773.552 289.091C773.284 289.023 773.061 288.962 772.789 288.91C770.893 288.46 766.448 287.217 765.626 285.327C764.578 282.915 753.267 296.544 763.017 300.213C763.312 300.324 763.607 300.422 763.89 300.508C765.213 301.398 766.75 301.372 768.554 303.572C769.696 304.964 770.452 306.643 770.64 307.073C771.128 308.19 771.437 309.22 771.639 310.053C774.24 307.232 775.834 305.546 776.852 304.485C777.587 303.72 778.335 303.373 778.773 302.362C779.16 301.467 781.584 296.491 780.442 294.096Z" fill="#26264F"/>
<path d="M775.35 307.681C775.35 307.681 772.464 312.416 766.717 312.042C761.571 311.707 760.818 300.169 764.104 297.72C765.2 296.903 767.396 296.564 769.182 297.064C770.236 297.36 770.593 297.798 772.326 298.247C773.924 298.662 774.375 298.485 774.858 298.89C775.461 299.399 775.903 300.643 774.896 304.017C775.877 303.023 777.055 302.641 777.891 303.035C778.024 303.099 778.377 303.339 778.576 303.703C779.296 305.021 778.092 306.704 775.35 307.681Z" fill="url(#paint14_linear_36_1555)"/>
<path d="M545.891 573.984C567.106 573.984 584.304 566.965 584.304 558.307C584.304 549.649 567.106 542.63 545.891 542.63C524.676 542.63 507.478 549.649 507.478 558.307C507.478 566.965 524.676 573.984 545.891 573.984Z" fill="#B7C0CE"/>
<path d="M507.478 556.469C507.478 564.642 524.676 571.268 545.891 571.268C567.106 571.268 584.304 564.642 584.304 556.469C584.304 548.296 567.106 534.923 545.891 534.923C524.676 534.923 507.478 548.296 507.478 556.469Z" fill="#97A6B7"/>
<path opacity="0.3" d="M507.478 556.469C507.478 548.296 524.676 534.923 545.891 534.923C555.686 534.923 564.62 537.776 571.406 541.65C571.881 542.645 572.102 543.634 572.012 544.574C571.572 549.172 564.072 551.999 559.767 552.932C548.926 555.28 543.631 548.797 534.693 549.044C529.167 549.197 521.508 551.973 512.425 563.731C509.281 561.585 507.478 559.109 507.478 556.469Z" fill="#97A6B7"/>
<path d="M543.787 545.165C545.322 545.547 546.753 545.532 548.101 545.189C549.323 544.879 550.162 543.748 550.162 542.487V505.632H541.62V542.436C541.62 543.736 542.526 544.851 543.787 545.165Z" fill="#97A6B7"/>
<path d="M591.024 494.863L577.975 486.615C577.433 483.533 577.259 374.846 552.289 364.724C547.154 362.642 540.014 354.474 531.597 350.035C529.676 349.022 527.686 348.218 525.724 347.571C524.255 346.916 522.652 346.26 520.878 345.606C518.682 344.797 507.311 345.904 505.628 346.934C500.608 347.847 495.856 355.971 492.181 363.651C489.207 368.947 486.854 373.879 485.287 376.057C481.338 381.547 490.53 424.983 494.631 455.272C495.068 459.129 495.362 462.257 495.445 464.331C495.841 474.098 494.703 479.583 495.706 484.707C494.948 489.83 494.259 493.081 496.071 497.42C498.905 504.208 505.477 507.971 510.588 510.089C516.696 513.636 527.333 518.691 541.382 519.923C565.045 521.996 582.711 511.845 588.786 507.962C591.487 507.11 593.517 504.864 594.091 502.089C594.674 499.277 593.452 496.398 591.024 494.863Z" fill="url(#paint15_linear_36_1555)"/>
<path d="M510.272 348.662C501.489 349.819 493.475 373.417 490.563 378.524C487.969 383.074 499.232 451.337 499.831 466.113C500.377 479.583 498.001 484.909 502.355 492.374C502.355 492.374 504.566 496.168 508.058 499.017C520.399 509.086 552.236 508.964 565.636 487.943C576.327 471.172 561.516 370.927 548.956 362.747C544.13 359.605 541.513 353.374 525.263 347.389C520.96 345.803 517.828 347.666 510.272 348.662Z" fill="url(#paint16_linear_36_1555)"/>
<path d="M591.973 487.455L578.924 479.206C578.924 479.206 543.972 467.715 511.633 483.917C508.012 485.732 505.759 489.478 505.759 493.528C505.759 496.636 507.626 499.44 510.493 500.639C516.134 504.491 527.148 510.85 542.331 512.514C566.467 515.16 584.426 504.107 589.735 500.553C592.436 499.701 594.466 497.455 595.041 494.681C595.623 491.869 594.401 488.99 591.973 487.455Z" fill="url(#paint17_linear_36_1555)"/>
<path d="M511.956 359.123C509.551 356.286 499.823 379.61 499.823 379.61C499.544 382.443 513.662 377.756 515.339 376.917C517.016 376.078 514.361 361.96 511.956 359.123Z" fill="url(#paint18_linear_36_1555)"/>
<path d="M524.664 356.152C525.946 352.661 543.104 371.214 543.104 371.214C544.341 373.778 529.473 374.234 527.609 374.023C525.746 373.813 523.382 359.643 524.664 356.152Z" fill="url(#paint19_linear_36_1555)"/>
<path d="M648.852 589.863L637.711 583.168H632.682C632.682 583.168 630.969 589.544 631.164 589.863C633.404 593.534 643.835 596.326 650.344 596.557C651.425 596.596 652.933 596.601 653.322 595.818C653.982 594.492 651.034 591.709 648.852 589.863Z" fill="url(#paint20_linear_36_1555)"/>
<path d="M637.513 575.863C637.495 579.763 637.662 582.515 638.638 583.725C639.325 584.577 632.718 586.494 632.682 583.168C632.658 580.979 632.314 577.223 631.964 576.12C633.814 576.034 635.664 575.949 637.513 575.863Z" fill="url(#paint21_linear_36_1555)"/>
<path d="M607.414 599.275L596.273 592.58H591.245C591.245 592.58 589.532 598.956 589.726 599.275C591.966 602.946 602.398 605.738 608.906 605.969C609.987 606.008 611.495 606.014 611.885 605.23C612.545 603.904 609.597 601.121 607.414 599.275Z" fill="url(#paint22_linear_36_1555)"/>
<path d="M596.076 585.275C596.057 589.175 596.224 591.927 597.2 593.137C597.888 593.989 591.281 595.907 591.245 592.58C591.221 590.391 590.877 586.635 590.527 585.532C592.376 585.446 594.226 585.361 596.076 585.275Z" fill="url(#paint23_linear_36_1555)"/>
<path d="M637.966 579.102C641.119 560.077 638.039 539.757 637.321 528.829C636.179 511.449 635.608 502.758 630.581 495.459C623.997 485.898 610.52 476.339 599.132 468.26C598.148 467.561 596.169 466.185 593.71 463.993C587.585 458.534 583.691 452.793 581.342 448.748C555.557 441.184 531.775 444.249 521.28 458.077C520.068 459.676 517.032 463.142 516.445 468.252C515.12 479.783 526.449 493.664 539.163 496.563C555.32 500.248 564.694 483.658 579.009 489.178C580.436 489.728 584.652 493.972 593.199 502.2C599.405 508.176 602.508 511.163 603.496 512.351C612.644 523.343 618.095 540.26 618.752 553.357C618.869 555.681 618.97 560.548 621.772 565.76C623.917 569.751 629.801 577.006 631.964 578.65C633.965 578.801 635.966 578.952 637.966 579.102Z" fill="url(#paint24_linear_36_1555)"/>
<path d="M589.711 588.496C589.711 588.496 595.227 591.101 599.321 588.496C599.186 581.599 599.175 570.804 600.057 557.602C601.988 528.708 606.077 519.971 602.448 507.632C599.829 498.727 592.793 486.596 572.032 475.254L519.308 470.083C519.308 470.083 516.823 474.13 517.428 479.73C518.536 489.986 530.324 496.273 540.181 501.413C559.647 511.564 563.758 506.894 570.098 513.735C578.668 522.983 573.331 533.86 578.013 556.731C580.842 570.546 585.813 581.349 589.711 588.496Z" fill="url(#paint25_linear_36_1555)"/>
<path d="M596.551 454.105C603.771 453.48 614.706 419.302 599.546 397.23C588.382 380.976 565.113 374.266 561.052 379.197C558.696 382.057 563.539 387.946 572.515 404.845C590.931 439.514 591.688 454.526 596.551 454.105Z" fill="url(#paint26_linear_36_1555)"/>
<path d="M516.353 380.79C522.864 378.702 532.786 376.252 544.956 376.108C558.594 375.947 569.497 375.818 577 381.566C595.122 395.449 574.83 429.712 585.245 454.574C586.383 457.292 589.692 465.907 586.814 475.384C586.283 477.131 585.19 478.666 583.319 481.266C572.308 496.562 541.137 498.863 526.738 486.289C519.097 479.616 512.209 481.097 512.024 473.199C511.296 442.019 516.651 410.798 516.353 380.79Z" fill="url(#paint27_linear_36_1555)"/>
<path d="M530.084 420.303C527.462 413.85 530.179 406.357 524.33 403.206C522.184 402.05 516.924 398.8 516.602 401.695C514.473 420.863 512.565 440.641 513.181 464.53C513.385 472.418 519.361 479.608 527.807 486.254C537.562 493.93 554.29 495.968 568.555 492.883C549.857 483.016 536.436 472.542 538.362 463.147C540.604 452.213 562.441 448.45 561.566 440.773C560.638 432.634 535.807 434.387 530.084 420.303Z" fill="url(#paint28_linear_36_1555)"/>
<path d="M546.233 359.124C546.275 363.728 545.71 367.386 545.175 369.893C544.563 372.766 544.121 373.511 543.557 374.119C542.708 375.033 541.421 375.808 534.139 377.534C530.168 378.475 529.657 378.457 529.569 378.816C529.141 380.565 539.96 386.358 551.092 384.778C557.883 383.814 564.046 380.211 563.668 378.367C563.288 376.511 556.518 377.592 554.497 374.245C553.091 371.915 554.668 368.568 556.53 365.791C554.726 362.731 548.043 362.19 546.233 359.124Z" fill="url(#paint29_linear_36_1555)"/>
<path d="M560.488 364.838C562.57 363.312 563.599 360.056 562.408 357.578C561.383 355.444 559.041 354.636 557.637 354.152C553.567 352.747 547.806 353.131 544.948 356.239C543.254 358.082 544.38 362.972 544.528 363.839C544.696 364.819 545.371 365.295 545.884 366.123C546.596 367.272 547.703 369.092 549.492 372.12C549.893 371.437 550.444 370.603 551.19 369.733C551.477 369.398 552.618 368.095 554.058 367.127C556.94 365.188 558.513 366.286 560.488 364.838Z" fill="url(#paint30_linear_36_1555)"/>
<path d="M546.527 369.244C546.527 369.244 548.112 374.008 553.708 374.921C558.708 375.737 562.294 365.836 559.767 362.988C558.924 362.037 556.911 361.263 555.08 361.311C553.998 361.339 553.548 361.644 551.778 361.658C550.144 361.672 549.757 361.419 549.193 361.669C548.488 361.981 547.754 362.972 547.878 366.139C547.185 365.057 546.15 364.467 545.25 364.63C545.107 364.656 544.708 364.789 544.426 365.065C543.406 366.061 544.141 367.795 546.527 369.244Z" fill="url(#paint31_linear_36_1555)"/>
<path d="M549.142 361.015C549.334 361.231 548.376 361.874 547.995 363.007C547.254 365.205 548.96 368.433 551.41 369.228C552.858 369.698 553.5 368.973 556.021 369.292C557.581 369.489 558.794 369.952 559.544 370.29C559.62 372.898 558.204 375.161 556.102 375.886C553.837 376.667 551.594 375.379 550.655 374.84C550.027 374.479 548.012 373.327 547.387 371.224C546.736 369.033 548.244 368.142 547.238 366.533C546.731 365.72 545.9 365.23 545.374 363.76C545.231 363.361 545.157 363.019 545.117 362.792C546.742 361.851 548.865 360.702 549.142 361.015Z" fill="url(#paint32_linear_36_1555)"/>
<path d="M557.504 370.789C557.504 370.789 556.297 371.055 554.489 370.546C554.401 370.521 554.295 370.523 554.272 370.563C554.185 370.712 555.159 371.691 556.323 371.658C557.15 371.634 557.938 371.104 557.883 370.911C557.859 370.83 557.683 370.8 557.504 370.789Z" fill="url(#paint33_linear_36_1555)"/>
<path d="M690.258 591.269C690.234 591.269 690.209 591.268 690.184 591.266C689.681 591.227 689.294 590.809 689.294 590.306V447.492C689.294 446.96 689.725 446.53 690.257 446.53C690.789 446.53 691.22 446.96 691.22 447.492V577.799L710.949 450.437C711.03 449.911 711.522 449.553 712.048 449.633C712.573 449.714 712.934 450.207 712.852 450.732L691.209 590.453C691.136 590.925 690.729 591.269 690.258 591.269Z" fill="#B7C0CE"/>
<path opacity="0.81" d="M448.916 465.474L686.354 447.19L875.04 461.763L636.132 481.869L448.916 465.474Z" fill="#F4F7FA"/>
<path d="M636.132 481.87L448.916 465.474V473.393L636.132 489.789L875.04 469.682V461.763L636.132 481.87Z" fill="#B7C0CE"/>
<path d="M634.516 640C634.038 640 633.628 639.646 633.563 639.166L612.981 487.213C612.909 486.686 613.278 486.2 613.805 486.129C614.333 486.055 614.817 486.427 614.889 486.954L633.554 624.754V487.083C633.554 486.551 633.985 486.12 634.517 486.12C635.049 486.12 635.48 486.551 635.48 487.083V639.037C635.48 639.543 635.088 639.964 634.582 639.997C634.56 639.999 634.538 640 634.516 640Z" fill="#B7C0CE"/>
<path d="M872.43 612.069C871.952 612.069 871.542 611.716 871.476 611.236L852.4 471.638C852.328 471.111 852.697 470.625 853.224 470.553C853.753 470.479 854.236 470.85 854.309 471.377L871.468 596.946V465.981C871.468 465.449 871.899 465.018 872.43 465.018C872.962 465.018 873.393 465.449 873.393 465.981V611.106C873.393 611.612 873.001 612.032 872.496 612.066C872.473 612.068 872.451 612.069 872.43 612.069Z" fill="#B7C0CE"/>
<path d="M451.165 612.069C451.141 612.069 451.117 612.067 451.093 612.066C450.591 612.029 450.201 611.61 450.201 611.106V473.394C450.201 472.862 450.632 472.431 451.164 472.431C451.696 472.431 452.127 472.862 452.127 473.394V597.941L470.466 473.254C470.544 472.728 471.035 472.363 471.559 472.441C472.085 472.519 472.449 473.008 472.371 473.534L452.116 611.246C452.047 611.721 451.638 612.069 451.165 612.069Z" fill="#B7C0CE"/>
<path d="M535.776 462.778C537.245 461.138 538.713 459.496 540.182 457.855C528.741 442.842 519.659 436.336 513.229 433.234C508.824 431.109 509.005 429.737 508.823 429.218C507.733 426.094 519.725 412.384 522.858 408.225C528.623 400.571 534.08 387.511 529.836 382.268C525.417 376.809 511.339 380.879 503.878 384.5C497.278 387.704 492.919 391.969 490.654 394.517C483.634 402.416 470.126 423.679 478.758 442.835C486.777 460.63 511.361 470.968 535.776 462.778Z" fill="url(#paint34_linear_36_1555)"/>
<path d="M568.057 462.644V460.613L655.509 455.901V457.912L593.711 463.993L568.057 462.644Z" fill="url(#paint35_linear_36_1555)"/>
<path d="M568.057 460.613L595.184 460.958L655.509 455.901L638.642 454.866L568.057 460.613Z" fill="url(#paint36_linear_36_1555)"/>
<path d="M579.653 453.606L604.248 376.651C604.636 375.437 606.02 374.559 607.586 374.53L715.277 372.553C716.195 372.536 717.788 373.207 718.346 373.786C718.904 374.365 719.665 374.471 719.456 375.22L699.377 442.939C699.043 444.068 697.844 444.94 696.45 445.068L581.626 455.591L579.653 453.606Z" fill="url(#paint37_linear_36_1555)"/>
<path d="M581.626 455.591L606.568 378.115C606.958 376.905 608.337 376.029 609.898 375.999L717.362 373.954C718.278 373.937 719.132 374.263 719.69 374.841C720.247 375.419 720.449 376.189 720.24 376.938L701.465 444.196C701.141 445.354 699.908 446.25 698.483 446.363L581.626 455.591Z" fill="url(#paint38_linear_36_1555)"/>
<path opacity="0.3" d="M581.626 455.591L698.482 446.363C699.908 446.25 701.141 445.354 701.465 444.196L707.133 423.891C671.519 436.343 629.203 434.976 587.246 438.134L581.626 455.591Z" fill="url(#paint39_linear_36_1555)"/>
<path d="M650.306 468.553L645.874 470.083C645.874 470.083 622.57 465.707 621.555 464.992C621.394 464.879 620.835 463.795 621.877 463.616C627.377 462.67 647.455 461.974 647.455 461.974L649.294 462.077L650.306 468.553Z" fill="url(#paint40_linear_36_1555)"/>
<path d="M650.625 467.191L646.193 468.719C646.193 468.719 622.892 464.331 621.878 463.616C620.862 462.9 647.774 460.613 647.774 460.613L649.611 460.722L650.625 467.191Z" fill="url(#paint41_linear_36_1555)"/>
<path d="M669.893 413.668C669.893 413.668 681.203 462.32 681.537 465.168C681.845 467.795 654.044 470.372 647.386 470.6C646.83 470.619 646.098 470.236 645.874 470.083C644.032 469.871 652.655 414.368 652.655 414.368L653.289 414.392L669.893 413.668Z" fill="url(#paint42_linear_36_1555)"/>
<path d="M669.893 413.668C669.893 413.668 682.753 462.813 683.086 465.658C683.419 468.501 650.368 470.674 647.477 470.577C645.637 470.365 653.289 414.392 653.289 414.392L669.893 413.668Z" fill="url(#paint43_linear_36_1555)"/>
<path d="M540.182 460.613C540.182 460.613 547.518 457.255 551.755 457.555C555.991 457.855 561.952 461.709 562.988 463.993C564.025 466.278 548.655 466.028 548.655 466.028C548.655 466.028 530.334 465.314 540.182 460.613Z" fill="url(#paint44_linear_36_1555)"/>
<path d="M536.379 456.688C540.473 451.483 550.235 454.663 550.787 454.851C553.12 455.643 556.247 457.253 556.029 458.28C555.818 459.274 552.673 458.756 547.483 459.633C539.888 460.916 536.521 463.732 535.177 462.299C534.15 461.203 535.035 458.397 536.379 456.688Z" fill="url(#paint45_linear_36_1555)"/>
<path d="M803.09 279.904C797.954 273.472 794.997 265.921 794.997 257.843C794.997 234.356 820.005 215.316 850.854 215.316C881.703 215.316 906.711 234.356 906.711 257.843C906.711 281.331 881.703 300.371 850.854 300.371C839.292 300.371 828.551 297.696 819.639 293.116C813.748 294.121 804.605 295.809 799.779 296.707C798.358 296.971 797.194 295.582 797.703 294.23L803.09 279.904Z" fill="url(#paint46_linear_36_1555)"/>
<g opacity="0.3">
<path d="M820.287 266.843C832.812 261.579 846.585 272.691 855.196 264.939C863.877 257.125 854.5 241.675 862.813 230.665C866.777 225.415 873.436 222.932 881.055 222.063C896.489 229.631 906.711 242.828 906.711 257.844C906.711 281.331 881.703 300.371 850.854 300.371C839.292 300.371 828.551 297.697 819.639 293.116C814.991 293.909 808.32 295.127 803.34 296.047C807.013 277.005 813.769 269.583 820.287 266.843Z" fill="url(#paint47_linear_36_1555)"/>
</g>
<path d="M813.811 242.301C813.811 243.485 814.77 244.446 815.955 244.446H883.86C885.044 244.446 886.004 243.486 886.004 242.301C886.004 241.117 885.044 240.157 883.86 240.157H815.955C814.771 240.157 813.811 241.117 813.811 242.301Z" fill="white"/>
<path d="M813.811 255.167C813.811 256.351 814.77 257.312 815.955 257.312H883.86C885.044 257.312 886.004 256.352 886.004 255.167C886.004 253.983 885.044 253.023 883.86 253.023H815.955C814.771 253.023 813.811 253.983 813.811 255.167Z" fill="white"/>
<path d="M845.976 268.033C845.976 269.217 846.936 270.178 848.121 270.178H883.86C885.044 270.178 886.005 269.218 886.005 268.033C886.005 266.849 885.045 265.889 883.86 265.889H848.121C846.936 265.889 845.976 266.849 845.976 268.033Z" fill="white"/>
<path d="M737.449 241.091C737.449 301.515 687.935 351.342 625.363 352.408C561.075 353.503 507.651 302.971 507.651 239.514C507.651 176.057 561.075 126.258 625.363 128.235C687.935 130.16 737.449 180.666 737.449 241.091Z" fill="url(#paint48_linear_36_1555)"/>
<path d="M702.678 235.577C698.903 210.863 690.644 198.129 684.745 191.72C681.531 188.228 677.004 186.464 672.252 186.375L671.38 186.359C664.425 186.23 657.569 187.612 651.489 190.901L649.352 192.264C642.664 195.883 635.077 197.933 627.333 197.809L625.106 197.774L623.39 197.747C615.607 197.623 607.932 195.174 601.124 191.295L598.941 190.156C592.707 186.605 585.638 184.769 578.424 184.635L577.516 184.618C572.558 184.526 567.816 186.16 564.437 189.622C558.212 195.999 549.441 209.008 545.412 234.459C541.598 258.54 542.689 273.542 544.302 281.99C545.306 287.242 548.911 291.675 553.946 293.9L554.124 293.961C559.769 296.456 566.376 295.782 571.371 292.229L591.194 278.474C598.723 273.117 607.784 270.586 617.051 270.59L625.107 270.593L633.645 270.596C642.81 270.6 651.703 273.105 659.041 278.384L678.139 291.95C682.902 295.376 689.172 295.874 694.501 293.398L694.669 293.277C699.401 291.079 702.777 286.709 703.715 281.627C705.222 273.46 706.239 258.886 702.678 235.577ZM569.325 229.3C565.487 229.265 562.371 226.233 562.371 222.529C562.371 218.824 565.487 215.858 569.325 215.904C573.156 215.95 576.258 218.981 576.258 222.675C576.258 226.369 573.156 229.334 569.325 229.3ZM582.788 255.396C576.849 255.374 572.024 250.695 572.024 244.944C572.024 239.193 576.849 234.569 582.788 234.617C588.712 234.664 593.504 239.344 593.504 245.069C593.504 250.793 588.712 255.417 582.788 255.396ZM614.791 254.037C613.014 254.03 611.572 252.621 611.572 250.89C611.572 249.158 613.014 247.762 614.791 247.772C616.566 247.781 618.005 249.19 618.005 250.919C618.005 252.648 616.566 254.044 614.791 254.037ZM631.757 254.103C629.994 254.096 628.562 252.693 628.562 250.968C628.562 249.243 629.993 247.852 631.757 247.861C633.521 247.87 634.949 249.274 634.949 250.997C634.949 252.72 633.521 254.11 631.757 254.103ZM687.128 233.993C687.128 235.797 685.627 237.499 683.801 237.485L674.548 237.417V245.9C674.548 247.708 673.204 249.556 671.369 249.547L668.007 249.531C666.168 249.522 664.484 247.657 664.484 245.844V237.344L654.521 237.27C652.672 237.256 651.065 235.519 651.065 233.702V230.228C651.065 228.511 652.588 227.494 654.335 227.511L664.483 227.608V218.496C664.483 216.684 666.106 215.458 667.945 215.481L671.382 215.521C673.217 215.543 674.547 216.801 674.547 218.61V227.702L683.801 227.789C685.627 227.806 687.128 228.923 687.128 230.726L687.128 233.993Z" fill="url(#paint49_linear_36_1555)"/>
<path d="M744.997 241.091C744.997 283.897 720.147 321.386 683.404 339.988C668.283 347.645 651.149 352.098 632.908 352.408C568.623 353.507 515.199 302.968 515.199 239.514C515.199 197.379 538.749 161.274 573.395 142.337C590.932 132.759 611.303 127.576 632.908 128.239C695.481 130.159 744.997 180.664 744.997 241.091Z" fill="url(#paint50_linear_36_1555)"/>
<path d="M710.225 235.572C706.451 210.865 698.19 198.125 692.295 191.718C689.082 188.229 684.554 186.459 679.798 186.376L678.926 186.359C671.974 186.233 665.121 187.608 659.041 190.904L656.902 192.263C650.21 195.886 642.628 197.932 634.879 197.807L632.656 197.773L630.937 197.748C628.983 197.715 627.028 197.538 625.1 197.22C619.347 196.297 613.769 194.2 608.67 191.299L606.489 190.158C600.258 186.602 593.188 184.766 585.975 184.631L585.061 184.615C580.105 184.53 575.366 186.157 571.986 189.621C565.763 196.004 556.991 209.011 552.957 234.457C549.149 258.544 550.24 273.539 551.85 281.993C552.856 287.243 556.463 291.671 561.494 293.902L561.67 293.961C567.315 296.452 573.923 295.781 578.922 292.225L598.74 278.471C606.271 273.12 615.329 270.562 624.596 270.562L629.838 270.545H641.194C650.361 270.545 659.25 273.078 666.589 278.362L685.686 291.936C690.449 295.366 696.722 295.867 702.048 293.393L702.216 293.27C706.946 291.073 710.326 286.705 711.265 281.622C712.766 273.462 713.79 258.888 710.225 235.572ZM576.876 229.299C573.035 229.265 569.923 226.229 569.923 222.531C569.923 218.824 573.035 215.855 576.876 215.905C580.709 215.947 583.803 218.983 583.803 222.673C583.803 226.372 580.708 229.332 576.876 229.299ZM590.336 255.398C584.398 255.373 579.568 250.693 579.568 244.94C579.568 239.195 584.398 234.566 590.336 234.616C596.257 234.666 601.055 239.346 601.055 245.066C601.055 250.794 596.258 255.415 590.336 255.398ZM622.34 254.04C620.562 254.032 619.12 252.622 619.12 250.887C619.12 249.159 620.562 247.758 622.34 247.775C624.119 247.783 625.553 249.192 625.553 250.92C625.553 252.648 624.119 254.04 622.34 254.04ZM639.307 254.107C637.546 254.099 636.111 252.69 636.111 250.97C636.111 249.243 637.546 247.85 639.307 247.859C641.068 247.867 642.494 249.276 642.494 250.996C642.494 252.723 641.068 254.107 639.307 254.107ZM694.676 233.995C694.676 235.799 693.175 237.501 691.347 237.484L682.096 237.417V245.896C682.096 247.708 680.754 249.553 678.918 249.544L675.555 249.528C673.718 249.519 672.032 247.657 672.032 245.846V237.342L662.069 237.266C660.223 237.258 658.613 235.522 658.613 233.702V230.23C658.613 228.511 660.14 227.496 661.884 227.513L672.032 227.605V218.497C672.032 216.686 673.651 215.461 675.496 215.478L678.934 215.52C680.763 215.545 682.096 216.803 682.096 218.606V227.706L691.347 227.789C693.175 227.806 694.676 228.922 694.676 230.725V233.995Z" fill="white"/>
<path opacity="0.2" d="M683.404 339.988C668.283 347.645 651.149 352.098 632.908 352.408C568.623 353.507 515.199 302.968 515.199 239.514C515.199 197.379 538.749 161.274 573.395 142.337C595.142 150.9 621.812 167.371 625.099 197.22C625.418 200.055 625.519 203.015 625.384 206.093C624.437 227.907 625.821 250.442 629.838 270.596C636.639 304.83 651.04 332.213 674.481 337.547C677.76 338.293 680.721 339.107 683.404 339.988Z" fill="url(#paint51_linear_36_1555)"/>
<path d="M497.16 155.255C504.42 158.941 513.542 155.556 517.533 147.695C521.524 139.834 518.874 130.472 511.614 126.786C511.238 126.595 510.854 126.435 510.469 126.281C511.818 121.931 512.835 117.547 513.517 113.162C513.933 113.161 514.35 113.154 514.775 113.116C523.058 112.377 529.632 104.766 529.459 96.1144C529.286 87.4632 522.43 81.0481 514.147 81.7866C513.714 81.8254 513.289 81.8938 512.866 81.9688C512 77.6816 510.815 73.4934 509.319 69.4401C509.7 69.2172 510.079 68.9867 510.45 68.7273C517.536 63.7625 519.802 53.9631 515.511 46.8403C511.219 39.7172 501.994 37.968 494.908 42.9327C494.545 43.1873 494.203 43.4619 493.865 43.7409C491.067 40.6467 487.997 37.779 484.675 35.162C484.908 34.779 485.137 34.3912 485.344 33.984C489.335 26.1227 494.551 17.5355 487.234 13.9633C470.307 5.70013 463.044 12.7738 459.052 20.635C458.845 21.0423 458.667 21.4559 458.496 21.8701C454.423 20.733 450.296 19.9467 446.146 19.5127C446.172 19.0757 446.192 18.6377 446.184 18.1942C446.01 9.54323 448.577 4.86166 440.263 4.69998C422.132 4.3475 416.014 12.2171 416.187 20.8681C416.196 21.3203 416.234 21.7625 416.279 22.2016C412.124 23.3858 408.044 24.9001 404.072 26.7316C403.883 26.3456 403.687 25.9622 403.463 25.5896C399.171 18.4668 389.947 16.7176 382.86 21.6828C375.773 26.648 373.507 36.447 377.799 43.5698C378.019 43.935 378.26 44.2759 378.504 44.6127C375.366 47.7513 372.427 51.1594 369.711 54.8154C369.36 54.595 369.004 54.3798 368.628 54.1887C361.367 50.5027 352.246 53.8873 348.255 61.7486C344.264 69.6099 346.913 78.9711 354.174 82.6572C354.55 82.8482 354.934 83.0087 355.319 83.1623C353.97 87.5122 352.953 91.8962 352.271 96.2819C351.855 96.2833 351.437 96.29 351.013 96.3276C342.73 97.0663 336.156 104.678 336.329 113.329C336.503 121.981 343.358 128.395 351.641 127.657C352.074 127.618 352.499 127.55 352.922 127.475C353.787 131.762 354.973 135.95 356.468 140.004C356.088 140.226 355.708 140.457 355.338 140.716C348.251 145.681 345.986 155.48 350.277 162.604C354.569 169.727 368.778 173.036 375.865 168.071C376.228 167.816 371.585 165.982 371.923 165.703C374.722 168.797 377.792 171.665 381.113 174.282C380.88 174.665 380.651 175.052 380.444 175.46C376.453 183.321 379.103 192.682 386.363 196.368C393.623 200.055 402.744 196.67 406.736 188.809C406.943 188.402 407.121 187.988 407.292 187.573C411.365 188.711 415.491 189.497 419.641 189.931C419.615 190.368 419.595 190.806 419.604 191.249C419.778 199.9 426.633 206.315 434.916 205.577C443.2 204.838 449.774 197.227 449.6 188.576C449.591 188.123 449.553 187.681 449.509 187.242C453.664 186.058 457.744 184.544 461.716 182.712C461.905 183.098 462.101 183.482 462.325 183.854C466.617 190.977 475.841 192.726 482.928 187.761C490.015 182.796 492.28 172.997 487.989 165.874C487.769 165.509 487.528 165.168 487.283 164.831C490.422 161.693 493.361 158.284 496.077 154.628C496.428 154.849 496.784 155.064 497.16 155.255ZM406.654 156.403C380.294 143.019 370.672 109.031 385.164 80.4887C399.656 51.9457 432.773 39.6569 459.133 53.0408C485.494 66.4244 495.115 100.412 480.623 128.955C466.131 157.498 433.014 169.787 406.654 156.403Z" fill="url(#paint52_linear_36_1555)"/>
<path d="M514.775 113.116C523.058 112.377 529.632 104.766 529.459 96.1143C529.285 87.4631 522.43 81.0482 514.147 81.7867C513.714 81.8253 513.289 81.8939 512.865 81.9689C512.001 77.6814 510.815 73.4937 509.319 69.4402C509.7 69.2175 510.079 68.9868 510.45 68.7272C517.536 63.7624 526.304 51.7659 521.304 45.1207C511.815 32.5088 501.994 37.9681 494.907 42.9328C494.544 43.1874 494.203 43.462 493.865 43.7406C491.066 40.6463 487.996 37.7792 484.674 35.1619C484.908 34.7791 485.137 34.3913 485.343 33.9841C487.516 29.7056 487.707 24.9885 486.273 20.9781C479.428 33.0255 472.675 45.1237 466.043 57.2875C487.073 72.6973 493.768 103.065 480.623 128.955C469.484 150.894 447.342 163.214 425.722 161.67C424.757 164.171 423.81 166.686 422.777 169.163C419.975 175.885 416.791 182.469 413.603 189.044C415.608 189.421 417.622 189.719 419.641 189.931C419.615 190.368 419.595 190.806 419.604 191.249C419.777 199.9 425.03 207.251 440.042 206.454C448.347 206.014 449.774 197.227 449.6 188.575C449.591 188.123 449.553 187.681 449.509 187.242C453.664 186.058 457.744 184.543 461.716 182.712C461.905 183.098 462.101 183.481 462.325 183.853C466.617 190.976 481.506 194.003 488.593 189.038C495.68 184.072 492.28 172.996 487.989 165.873C487.769 165.508 487.528 165.167 487.283 164.83C490.421 161.692 493.361 158.284 496.076 154.628C496.428 154.848 496.784 155.063 497.16 155.254C504.42 158.94 513.542 155.556 517.533 147.694C521.524 139.833 518.874 130.472 511.614 126.786C511.238 126.595 510.854 126.434 510.469 126.281C511.818 121.931 512.835 117.547 513.517 113.162C513.933 113.161 514.351 113.153 514.775 113.116Z" fill="url(#paint53_linear_36_1555)"/>
<path d="M504.968 156.143C512.229 159.829 521.35 156.445 525.342 148.583C529.333 140.722 526.683 131.361 519.422 127.674C519.046 127.483 518.662 127.323 518.277 127.169C519.626 122.819 520.643 118.435 521.325 114.05C521.741 114.049 522.159 114.042 522.583 114.004C530.867 113.265 537.441 105.654 537.267 97.0025C537.094 88.351 530.238 81.9364 521.955 82.6748C521.522 82.7136 521.097 82.7818 520.674 82.8571C519.809 78.5698 518.623 74.3816 517.128 70.3283C517.509 70.1054 517.888 69.8751 518.258 69.6155C525.345 64.6508 527.61 54.8513 523.319 47.7283C519.027 40.6052 509.803 38.856 502.716 43.821C502.353 44.0755 502.011 44.3504 501.674 44.6289C498.875 41.5347 495.805 38.6673 492.483 36.0503C492.717 35.6675 492.945 35.2795 493.152 34.8722C497.143 27.011 494.493 17.6497 487.233 13.9637C479.973 10.2774 470.852 13.6622 466.86 21.5235C466.654 21.9307 466.475 22.3444 466.304 22.7588C462.231 21.6217 458.105 20.8352 453.955 20.4014C453.981 19.9641 454.001 19.5264 453.992 19.0829C453.818 10.4319 446.963 4.01731 438.68 4.75553C430.397 5.49375 423.822 13.1058 423.996 21.7566C424.005 22.2088 424.042 22.6507 424.087 23.0898C419.932 24.2743 415.852 25.7886 411.88 27.6201C411.691 27.2341 411.495 26.8507 411.271 26.4781C406.979 19.3553 397.755 17.6058 390.668 22.571C383.581 27.5364 381.316 37.3354 385.607 44.4583C385.827 44.823 386.068 45.1644 386.313 45.5011C383.174 48.6397 380.235 52.0477 377.519 55.7039C377.168 55.4835 376.812 55.2683 376.436 55.0775C369.176 51.3912 360.055 54.7758 356.063 62.6371C352.072 70.4983 354.722 79.8596 361.982 83.5456C362.358 83.7367 362.742 83.897 363.127 84.0508C361.778 88.4009 360.761 92.7847 360.079 97.1704C359.663 97.1715 359.246 97.1785 358.821 97.2159C350.538 97.9548 343.964 105.566 344.137 114.218C344.31 122.869 351.166 129.283 359.449 128.545C359.882 128.507 360.308 128.438 360.73 128.363C361.596 132.65 362.781 136.838 364.277 140.892C363.896 141.114 363.516 141.345 363.146 141.605C356.059 146.569 353.794 156.369 358.086 163.492C362.377 170.615 371.602 172.364 378.688 167.399C379.051 167.144 379.393 166.87 379.73 166.591C382.53 169.685 385.599 172.553 388.921 175.17C388.688 175.553 388.459 175.941 388.252 176.348C384.261 184.209 386.911 193.57 394.171 197.256C401.431 200.942 410.553 197.558 414.544 189.697C414.751 189.289 414.929 188.876 415.1 188.461C419.173 189.599 423.3 190.385 427.449 190.819C427.424 191.256 427.403 191.694 427.412 192.137C427.586 200.788 434.441 207.203 442.724 206.465C451.008 205.726 457.582 198.115 457.408 189.464C457.399 189.011 457.361 188.569 457.317 188.13C461.472 186.946 465.552 185.432 469.524 183.6C469.713 183.986 469.909 184.37 470.133 184.742C474.425 191.865 483.649 193.614 490.736 188.649C497.823 183.684 500.088 173.885 495.797 166.762C495.577 166.397 495.336 166.056 495.091 165.719C498.229 162.581 501.169 159.172 503.884 155.516C504.236 155.737 504.592 155.952 504.968 156.143ZM414.463 157.291C388.102 143.907 378.481 109.92 392.973 81.3767C407.465 52.8339 440.582 40.5452 466.942 53.9288C493.302 67.3126 502.924 101.301 488.432 129.843C473.94 158.386 440.823 170.675 414.463 157.291Z" fill="url(#paint54_linear_36_1555)"/>
<defs>
<linearGradient id="paint0_linear_36_1555" x1="653.226" y1="11.6107" x2="753.991" y2="142.274" gradientUnits="userSpaceOnUse">
<stop offset="0.0036" stop-color="#E38DDD"/>
<stop offset="1" stop-color="#9571F6"/>
</linearGradient>
<linearGradient id="paint1_linear_36_1555" x1="980.101" y1="145.863" x2="846.238" y2="201.812" gradientUnits="userSpaceOnUse">
<stop stop-color="#FF9085"/>
<stop offset="1" stop-color="#FB6FBB"/>
</linearGradient>
<linearGradient id="paint2_linear_36_1555" x1="642.684" y1="632.213" x2="644.284" y2="496.194" gradientUnits="userSpaceOnUse">
<stop offset="0.494" stop-color="#EBEFF2"/>
<stop offset="1" stop-color="white"/>
</linearGradient>
<linearGradient id="paint3_linear_36_1555" x1="737.671" y1="242.031" x2="619.273" y2="809.692" gradientUnits="userSpaceOnUse">
<stop stop-color="#FF9085"/>
<stop offset="1" stop-color="#FB6FBB"/>
</linearGradient>
<linearGradient id="paint4_linear_36_1555" x1="738.603" y1="287.73" x2="654.906" y2="689.018" gradientUnits="userSpaceOnUse">
<stop stop-color="#FF9085"/>
<stop offset="1" stop-color="#FB6FBB"/>
</linearGradient>
<linearGradient id="paint5_linear_36_1555" x1="760.328" y1="574.834" x2="777.514" y2="575.33" gradientUnits="userSpaceOnUse">
<stop stop-color="#444B8C"/>
<stop offset="0.9964" stop-color="#26264F"/>
</linearGradient>
<linearGradient id="paint6_linear_36_1555" x1="771.424" y1="569.408" x2="777.588" y2="569.408" gradientUnits="userSpaceOnUse">
<stop stop-color="#FFC444"/>
<stop offset="0.9964" stop-color="#F36F56"/>
</linearGradient>
<linearGradient id="paint7_linear_36_1555" x1="704.519" y1="570.101" x2="722.132" y2="574.943" gradientUnits="userSpaceOnUse">
<stop stop-color="#444B8C"/>
<stop offset="0.9964" stop-color="#26264F"/>
</linearGradient>
<linearGradient id="paint8_linear_36_1555" x1="716.468" y1="567.373" x2="724.081" y2="567.373" gradientUnits="userSpaceOnUse">
<stop stop-color="#FFC444"/>
<stop offset="0.9964" stop-color="#F36F56"/>
</linearGradient>
<linearGradient id="paint9_linear_36_1555" x1="748.941" y1="282.389" x2="806.351" y2="557.64" gradientUnits="userSpaceOnUse">
<stop stop-color="#FF9085"/>
<stop offset="1" stop-color="#FB6FBB"/>
</linearGradient>
<linearGradient id="paint10_linear_36_1555" x1="798.313" y1="517.794" x2="776.525" y2="414.3" gradientUnits="userSpaceOnUse">
<stop stop-color="#FF9085"/>
<stop offset="1" stop-color="#FB6FBB"/>
</linearGradient>
<linearGradient id="paint11_linear_36_1555" x1="788.269" y1="274.187" x2="845.679" y2="549.438" gradientUnits="userSpaceOnUse">
<stop stop-color="#FF9085"/>
<stop offset="1" stop-color="#FB6FBB"/>
</linearGradient>
<linearGradient id="paint12_linear_36_1555" x1="760.817" y1="393.417" x2="780.069" y2="393.417" gradientUnits="userSpaceOnUse">
<stop stop-color="#FFC444"/>
<stop offset="0.9964" stop-color="#F36F56"/>
</linearGradient>
<linearGradient id="paint13_linear_36_1555" x1="775.313" y1="310.419" x2="774.631" y2="357.841" gradientUnits="userSpaceOnUse">
<stop stop-color="#FFC444"/>
<stop offset="0.9964" stop-color="#F36F56"/>
</linearGradient>
<linearGradient id="paint14_linear_36_1555" x1="762.122" y1="304.447" x2="778.78" y2="304.447" gradientUnits="userSpaceOnUse">
<stop stop-color="#FFC444"/>
<stop offset="0.9964" stop-color="#F36F56"/>
</linearGradient>
<linearGradient id="paint15_linear_36_1555" x1="556.925" y1="398.129" x2="606.647" y2="279.712" gradientUnits="userSpaceOnUse">
<stop stop-color="#311944"/>
<stop offset="1" stop-color="#893976"/>
</linearGradient>
<linearGradient id="paint16_linear_36_1555" x1="585.846" y1="568.979" x2="536.154" y2="450.633" gradientUnits="userSpaceOnUse">
<stop stop-color="#311944"/>
<stop offset="1" stop-color="#893976"/>
</linearGradient>
<linearGradient id="paint17_linear_36_1555" x1="580.387" y1="564.736" x2="534.623" y2="455.745" gradientUnits="userSpaceOnUse">
<stop stop-color="#311944"/>
<stop offset="1" stop-color="#893976"/>
</linearGradient>
<linearGradient id="paint18_linear_36_1555" x1="495.052" y1="408.266" x2="518.514" y2="352.39" gradientUnits="userSpaceOnUse">
<stop stop-color="#311944"/>
<stop offset="1" stop-color="#893976"/>
</linearGradient>
<linearGradient id="paint19_linear_36_1555" x1="557.441" y1="396.48" x2="516.191" y2="352.085" gradientUnits="userSpaceOnUse">
<stop stop-color="#311944"/>
<stop offset="1" stop-color="#893976"/>
</linearGradient>
<linearGradient id="paint20_linear_36_1555" x1="653.416" y1="589.869" x2="631.148" y2="589.869" gradientUnits="userSpaceOnUse">
<stop stop-color="#311944"/>
<stop offset="1" stop-color="#6B3976"/>
</linearGradient>
<linearGradient id="paint21_linear_36_1555" x1="638.073" y1="588.604" x2="619.643" y2="533.315" gradientUnits="userSpaceOnUse">
<stop stop-color="#FFC444"/>
<stop offset="0.9964" stop-color="#F36F56"/>
</linearGradient>
<linearGradient id="paint22_linear_36_1555" x1="611.979" y1="599.281" x2="589.711" y2="599.281" gradientUnits="userSpaceOnUse">
<stop stop-color="#311944"/>
<stop offset="1" stop-color="#6B3976"/>
</linearGradient>
<linearGradient id="paint23_linear_36_1555" x1="596.636" y1="598.016" x2="578.206" y2="542.726" gradientUnits="userSpaceOnUse">
<stop stop-color="#FFC444"/>
<stop offset="0.9964" stop-color="#F36F56"/>
</linearGradient>
<linearGradient id="paint24_linear_36_1555" x1="544.917" y1="506.239" x2="622.603" y2="514.576" gradientUnits="userSpaceOnUse">
<stop offset="0.0036" stop-color="#26264F"/>
<stop offset="1" stop-color="#444B8C"/>
</linearGradient>
<linearGradient id="paint25_linear_36_1555" x1="534.84" y1="527.261" x2="589.48" y2="533.125" gradientUnits="userSpaceOnUse">
<stop offset="0.0036" stop-color="#26264F"/>
<stop offset="1" stop-color="#444B8C"/>
</linearGradient>
<linearGradient id="paint26_linear_36_1555" x1="571.75" y1="426.536" x2="588.248" y2="405.646" gradientUnits="userSpaceOnUse">
<stop offset="0.0036" stop-color="#E38DDD"/>
<stop offset="1" stop-color="#9571F6"/>
</linearGradient>
<linearGradient id="paint27_linear_36_1555" x1="585.728" y1="468.293" x2="500.599" y2="387.072" gradientUnits="userSpaceOnUse">
<stop offset="0.0036" stop-color="#E38DDD"/>
<stop offset="1" stop-color="#9571F6"/>
</linearGradient>
<linearGradient id="paint28_linear_36_1555" x1="527.351" y1="466.373" x2="564.236" y2="419.669" gradientUnits="userSpaceOnUse">
<stop stop-color="#AA80F9"/>
<stop offset="0.9964" stop-color="#6165D7"/>
</linearGradient>
<linearGradient id="paint29_linear_36_1555" x1="538.454" y1="395.807" x2="558.886" y2="353.264" gradientUnits="userSpaceOnUse">
<stop stop-color="#FFC444"/>
<stop offset="0.9964" stop-color="#F36F56"/>
</linearGradient>
<linearGradient id="paint30_linear_36_1555" x1="537.326" y1="382.025" x2="556.68" y2="355.267" gradientUnits="userSpaceOnUse">
<stop stop-color="#311944"/>
<stop offset="1" stop-color="#6B3976"/>
</linearGradient>
<linearGradient id="paint31_linear_36_1555" x1="552.946" y1="363.131" x2="544.186" y2="405.851" gradientUnits="userSpaceOnUse">
<stop stop-color="#FFC444"/>
<stop offset="0.9964" stop-color="#F36F56"/>
</linearGradient>
<linearGradient id="paint32_linear_36_1555" x1="540.694" y1="383.768" x2="559.354" y2="357.971" gradientUnits="userSpaceOnUse">
<stop stop-color="#311944"/>
<stop offset="1" stop-color="#6B3976"/>
</linearGradient>
<linearGradient id="paint33_linear_36_1555" x1="556.74" y1="369.014" x2="554.665" y2="374.481" gradientUnits="userSpaceOnUse">
<stop stop-color="#FFC444"/>
<stop offset="1" stop-color="#F36F56"/>
</linearGradient>
<linearGradient id="paint34_linear_36_1555" x1="573.939" y1="480.65" x2="488.81" y2="399.429" gradientUnits="userSpaceOnUse">
<stop offset="0.0036" stop-color="#E38DDD"/>
<stop offset="1" stop-color="#9571F6"/>
</linearGradient>
<linearGradient id="paint35_linear_36_1555" x1="607.798" y1="477.419" x2="609.472" y2="469.79" gradientUnits="userSpaceOnUse">
<stop offset="0.0036" stop-color="#26264F"/>
<stop offset="1" stop-color="#444B8C"/>
</linearGradient>
<linearGradient id="paint36_linear_36_1555" x1="568.057" y1="457.912" x2="655.51" y2="457.912" gradientUnits="userSpaceOnUse">
<stop offset="0.0036" stop-color="#26264F"/>
<stop offset="1" stop-color="#444B8C"/>
</linearGradient>
<linearGradient id="paint37_linear_36_1555" x1="654.165" y1="425.168" x2="645.373" y2="404.235" gradientUnits="userSpaceOnUse">
<stop offset="0.0036" stop-color="#26264F"/>
<stop offset="1" stop-color="#444B8C"/>
</linearGradient>
<linearGradient id="paint38_linear_36_1555" x1="581.627" y1="414.772" x2="720.321" y2="414.772" gradientUnits="userSpaceOnUse">
<stop offset="0.0036" stop-color="#26264F"/>
<stop offset="1" stop-color="#444B8C"/>
</linearGradient>
<linearGradient id="paint39_linear_36_1555" x1="581.627" y1="439.741" x2="707.133" y2="439.741" gradientUnits="userSpaceOnUse">
<stop offset="0.0036" stop-color="#26264F"/>
<stop offset="1" stop-color="#444B8C"/>
</linearGradient>
<linearGradient id="paint40_linear_36_1555" x1="634.896" y1="463.302" x2="642.711" y2="466.791" gradientUnits="userSpaceOnUse">
<stop stop-color="#444B8C"/>
<stop offset="0.9964" stop-color="#26264F"/>
</linearGradient>
<linearGradient id="paint41_linear_36_1555" x1="621.849" y1="464.666" x2="650.624" y2="464.666" gradientUnits="userSpaceOnUse">
<stop offset="0.0036" stop-color="#26264F"/>
<stop offset="1" stop-color="#444B8C"/>
</linearGradient>
<linearGradient id="paint42_linear_36_1555" x1="645.616" y1="442.134" x2="681.539" y2="442.134" gradientUnits="userSpaceOnUse">
<stop stop-color="#444B8C"/>
<stop offset="0.9964" stop-color="#26264F"/>
</linearGradient>
<linearGradient id="paint43_linear_36_1555" x1="647.191" y1="442.124" x2="683.089" y2="442.124" gradientUnits="userSpaceOnUse">
<stop offset="0.0036" stop-color="#26264F"/>
<stop offset="1" stop-color="#444B8C"/>
</linearGradient>
<linearGradient id="paint44_linear_36_1555" x1="537.273" y1="461.786" x2="563.038" y2="461.786" gradientUnits="userSpaceOnUse">
<stop offset="0.0036" stop-color="#26264F"/>
<stop offset="1" stop-color="#444B8C"/>
</linearGradient>
<linearGradient id="paint45_linear_36_1555" x1="543.609" y1="453.584" x2="548.569" y2="470.691" gradientUnits="userSpaceOnUse">
<stop stop-color="#FFC444"/>
<stop offset="0.9964" stop-color="#F36F56"/>
</linearGradient>
<linearGradient id="paint46_linear_36_1555" x1="906.711" y1="257.843" x2="794.997" y2="257.843" gradientUnits="userSpaceOnUse">
<stop offset="0.0036" stop-color="#E38DDD"/>
<stop offset="1" stop-color="#9571F6"/>
</linearGradient>
<linearGradient id="paint47_linear_36_1555" x1="891.966" y1="228.457" x2="795.022" y2="356.13" gradientUnits="userSpaceOnUse">
<stop offset="0.0036" stop-color="#E38DDD"/>
<stop offset="1" stop-color="#9571F6"/>
</linearGradient>
<linearGradient id="paint48_linear_36_1555" x1="507.651" y1="240.302" x2="737.449" y2="240.302" gradientUnits="userSpaceOnUse">
<stop stop-color="#444B8C"/>
<stop offset="0.9964" stop-color="#26264F"/>
</linearGradient>
<linearGradient id="paint49_linear_36_1555" x1="542.822" y1="240.034" x2="705.096" y2="240.034" gradientUnits="userSpaceOnUse">
<stop stop-color="#444B8C"/>
<stop offset="0.9964" stop-color="#26264F"/>
</linearGradient>
<linearGradient id="paint50_linear_36_1555" x1="515.199" y1="240.304" x2="744.997" y2="240.304" gradientUnits="userSpaceOnUse">
<stop stop-color="#AA80F9"/>
<stop offset="0.9964" stop-color="#6165D7"/>
</linearGradient>
<linearGradient id="paint51_linear_36_1555" x1="515.199" y1="247.381" x2="683.404" y2="247.381" gradientUnits="userSpaceOnUse">
<stop stop-color="#AA80F9"/>
<stop offset="0.9964" stop-color="#6165D7"/>
</linearGradient>
<linearGradient id="paint52_linear_36_1555" x1="336.325" y1="105.162" x2="529.462" y2="105.162" gradientUnits="userSpaceOnUse">
<stop stop-color="#AB316D"/>
<stop offset="1" stop-color="#792D3D"/>
</linearGradient>
<linearGradient id="paint53_linear_36_1555" x1="413.603" y1="113.746" x2="529.462" y2="113.746" gradientUnits="userSpaceOnUse">
<stop stop-color="#AB316D"/>
<stop offset="1" stop-color="#792D3D"/>
</linearGradient>
<linearGradient id="paint54_linear_36_1555" x1="496.287" y1="6.93615" x2="253.995" y2="437.051" gradientUnits="userSpaceOnUse">
<stop stop-color="#FF9085"/>
<stop offset="1" stop-color="#FB6FBB"/>
</linearGradient>
</defs>
</svg>
