<svg width="24" height="24" viewBox="0 0 24 24" fill="none" xmlns="http://www.w3.org/2000/svg">
<g clip-path="url(#clip0_10_177)">
<path d="M10.7436 0.749989H21.3841C22.4228 0.749989 23.2591 1.58623 23.2591 2.62498V5.08553C23.2591 6.12427 22.4228 6.96051 21.3841 6.96051H10.7436C9.70485 6.96051 8.86861 6.12427 8.86861 5.08553V2.62498C8.86861 1.58623 9.70485 0.749989 10.7436 0.749989ZM3.84616 0.727737C3.02255 0.727738 2.23267 1.05492 1.65028 1.6373C1.0679 2.21968 0.740723 3.00956 0.740723 3.83317C0.740723 4.65679 1.0679 5.44667 1.65028 6.02905C2.23267 6.61143 3.02255 6.93861 3.84616 6.93861C4.25397 6.93861 4.65779 6.85829 5.03456 6.70223C5.41133 6.54616 5.75367 6.31742 6.04204 6.02905C6.33041 5.74069 6.55915 5.39834 6.71522 5.02157C6.87128 4.64481 6.9516 4.24099 6.9516 3.83317C6.9516 3.42536 6.87128 3.02154 6.71522 2.64477C6.55915 2.268 6.33041 1.92566 6.04204 1.6373C5.75367 1.34893 5.41133 1.12019 5.03456 0.964123C4.65779 0.808061 4.25397 0.727737 3.84616 0.727737Z" fill="white"/>
<path d="M21.3748 8.50723H14.9004C13.8616 8.50723 13.0254 9.34347 13.0254 10.3822V21.3735C13.0254 22.4123 14.0726 23.2485 15.1113 23.2485H21.3748C22.4136 23.2485 23.2498 22.4123 23.2498 21.3735V10.3822C23.2498 9.34347 22.4136 8.50723 21.3748 8.50723Z" fill="white"/>
<path d="M9.10041 8.50723H2.62596C1.58722 8.50723 0.750977 9.34347 0.750977 10.3822V12.8221C0.750977 13.8608 1.79816 14.697 2.83689 14.697H9.10041C10.1391 14.697 10.9754 13.8608 10.9754 12.8221V10.3822C10.9754 9.34347 10.1391 8.50723 9.10041 8.50723ZM9.10041 16.6837H2.62596C1.58722 16.6837 0.750977 17.52 0.750977 18.5587V21.3735C0.750977 22.4123 1.79816 23.2485 2.83689 23.2485H9.10041C10.1391 23.2485 10.9754 22.4123 10.9754 21.3735V18.5587C10.9754 17.52 10.1391 16.6837 9.10041 16.6837Z" fill="white"/>
</g>
<defs>
<clipPath id="clip0_10_177">
<rect width="24" height="24" fill="white"/>
</clipPath>
</defs>
</svg>
