<svg width="256" height="256" viewBox="0 0 256 256" fill="none" xmlns="http://www.w3.org/2000/svg">
<g clip-path="url(#clip0_173_2)">
<path fill-rule="evenodd" clip-rule="evenodd" d="M105.547 119.787C104.457 119.768 103.374 119.967 102.361 120.372C101.349 120.776 100.427 121.378 99.6493 122.143C98.8718 122.907 98.2544 123.819 97.833 124.825C97.4116 125.83 97.1947 126.91 97.1948 128C97.1948 132.48 100.886 136.213 105.547 136.213H170.667V187.2C170.667 213.333 149.067 234.667 122.368 234.667H69.5148C42.9335 234.667 21.3335 213.44 21.3335 187.307V68.8C21.3335 42.56 43.0402 21.3333 69.6322 21.3333H122.592C149.067 21.3333 170.667 42.56 170.667 68.6933V119.787H105.547ZM209.387 91.0933L240.533 122.133C241.306 122.892 241.919 123.797 242.337 124.795C242.756 125.793 242.972 126.864 242.972 127.947C242.972 129.029 242.756 130.101 242.337 131.099C241.919 132.097 241.306 133.001 240.533 133.76L209.387 164.8C207.787 166.4 205.654 167.253 203.627 167.253C201.992 167.261 200.392 166.783 199.029 165.88C197.667 164.976 196.604 163.688 195.975 162.179C195.346 160.67 195.18 159.008 195.498 157.405C195.816 155.801 196.603 154.328 197.76 153.173L214.827 136.213H170.667V119.787H214.827L197.76 102.827C194.56 99.6267 194.56 94.4 197.76 91.2C200.96 87.8933 206.187 87.8933 209.387 91.0933Z" fill="white"/>
</g>
<defs>
<clipPath id="clip0_173_2">
<rect width="256" height="256" fill="white"/>
</clipPath>
</defs>
</svg>
