<svg width="25" height="24" viewBox="0 0 25 24" fill="none" xmlns="http://www.w3.org/2000/svg">
<path d="M12.3579 22.5C13.0861 22.5 13.7844 22.2107 14.2993 21.6958C14.8142 21.1809 15.1035 20.4826 15.1035 19.7544H9.6123C9.6123 20.4826 9.90157 21.1809 10.4165 21.6958C10.9314 22.2107 11.6297 22.5 12.3579 22.5Z" fill="#CFDADD"/>
<path d="M20.6088 11.2488C20.608 9.3171 19.9294 7.44693 18.6913 5.96414C17.4533 4.48136 15.7342 3.47995 13.8336 3.1344V4.74H10.8816V3.1344C8.9811 3.47995 7.26204 4.48136 6.02397 5.96414C4.7859 7.44693 4.10731 9.3171 4.10645 11.2488V16.5H20.6088V11.2488Z" fill="white"/>
<path d="M13.8338 4.74001V2.82001C13.8338 2.43809 13.6821 2.07182 13.4121 1.80177C13.142 1.53172 12.7757 1.38 12.3938 1.38H12.3218C11.9399 1.38 11.5737 1.53172 11.3036 1.80177C11.0336 2.07182 10.8818 2.43809 10.8818 2.82001V4.74001H13.8338Z" fill="white"/>
<path d="M3.734 18.8376H20.9804C21.2789 18.8376 21.5652 18.719 21.7763 18.5079C21.9874 18.2968 22.106 18.0105 22.106 17.712V17.6256C22.106 17.3271 21.9874 17.0408 21.7763 16.8297C21.5652 16.6186 21.2789 16.5 20.9804 16.5H3.734C3.43547 16.5 3.14917 16.6186 2.93808 16.8297C2.72699 17.0408 2.6084 17.3271 2.6084 17.6256V17.712C2.6084 18.0105 2.72699 18.2968 2.93808 18.5079C3.14917 18.719 3.43547 18.8376 3.734 18.8376Z" fill="white"/>
</svg>
