<svg width="24" height="24" viewBox="0 0 24 24" fill="none" xmlns="http://www.w3.org/2000/svg">
<path d="M21.5814 6.7125C20.4752 6.73125 19.5564 7.70625 19.6127 8.8125C19.6314 9.43125 19.9314 9.95625 20.3814 10.3125C18.0564 13.425 15.6939 13.6687 12.9564 8.5125C13.9314 8.025 14.4752 6.7875 13.7627 5.55C13.4252 4.95 12.7314 4.65 12.0377 4.6875C12.0189 4.6875 12.0189 4.6875 12.0002 4.6875C12.0002 4.6875 11.9814 4.6875 11.9627 4.6875C11.2689 4.66875 10.5939 4.95 10.2377 5.55C9.52519 6.7875 10.0689 8.025 11.0439 8.5125C8.30644 13.6687 5.94394 13.425 3.61894 10.3125C4.06894 9.95625 4.36895 9.4125 4.38769 8.8125C4.4252 7.70625 3.5252 6.73125 2.41895 6.7125C1.2752 6.69375 0.356445 7.59375 0.356445 8.7375C0.356445 9.84375 1.25645 10.7625 2.38145 10.7625C2.45645 10.7625 2.5502 10.7625 2.6252 10.7437L3.39395 18.2812C3.4502 18.8812 3.95644 19.3312 4.55645 19.3312H12.0002H19.4439C20.0439 19.3312 20.5502 18.8812 20.6064 18.2812L21.3752 10.7437C21.4502 10.7625 21.5252 10.7625 21.6189 10.7625C22.7252 10.7625 23.6439 9.8625 23.6439 8.7375C23.6439 7.59375 22.7064 6.69375 21.5814 6.7125Z" fill="white"/>
</svg>
