<svg width="25" height="24" viewBox="0 0 25 24" fill="none" xmlns="http://www.w3.org/2000/svg">
<path d="M15.8994 17.22L15.4482 17.6712L20.0826 22.272C20.2348 22.4241 20.4411 22.5096 20.6562 22.5096C20.8714 22.5096 21.0777 22.4241 21.2298 22.272L22.629 20.88C22.7812 20.7279 22.8666 20.5215 22.8666 20.3064C22.8666 20.0913 22.7812 19.8849 22.629 19.7328L17.9922 15.12L17.541 15.5784L15.8994 17.22Z" fill="#CFDADD"/>
<path d="M16.8626 14.8992L15.1562 13.1544C14.9238 13.4657 14.6696 13.76 14.3954 14.0352C14.1208 14.3107 13.8264 14.5658 13.5146 14.7984L15.221 16.5408L16.8626 14.8992Z" fill="white"/>
<path d="M9.52087 16.8192C11.2921 16.8188 13.0084 16.2043 14.3774 15.0804C15.7463 13.9565 16.6833 12.3926 17.0285 10.6554C17.3737 8.91811 17.1059 7.11488 16.2706 5.55295C15.4354 3.99101 14.0844 2.767 12.4479 2.08947C10.8113 1.41193 8.99052 1.3228 7.29564 1.83724C5.60076 2.35169 4.13669 3.4379 3.15288 4.91078C2.16907 6.38367 1.72639 8.15211 1.90027 9.91479C2.07416 11.6775 2.85384 13.3253 4.10647 14.5776C4.81669 15.2896 5.66067 15.8543 6.58988 16.239C7.51909 16.6237 8.51518 16.8208 9.52087 16.8192ZM5.69287 5.3352C6.45003 4.57783 7.41478 4.062 8.46511 3.85296C9.51545 3.64391 10.6042 3.75104 11.5936 4.1608C12.5831 4.57055 13.4288 5.26453 14.0238 6.15496C14.6188 7.04539 14.9364 8.09227 14.9364 9.1632C14.9364 10.2341 14.6188 11.281 14.0238 12.1714C13.4288 13.0619 12.5831 13.7558 11.5936 14.1656C10.6042 14.5754 9.51545 14.6825 8.46511 14.4734C7.41478 14.2644 6.45003 13.7486 5.69287 12.9912C5.18998 12.4886 4.79105 11.8919 4.51887 11.235C4.24669 10.5782 4.1066 9.87419 4.1066 9.1632C4.1066 8.45222 4.24669 7.7482 4.51887 7.09138C4.79105 6.43455 5.18998 5.83779 5.69287 5.3352Z" fill="white"/>
</svg>
