<svg width="24" height="24" viewBox="0 0 24 24" fill="none" xmlns="http://www.w3.org/2000/svg">
<path d="M3.4008 9.22964C3.79338 8.02073 4.44008 6.91103 5.29338 5.97059C5.43767 5.81156 5.66405 5.75488 5.86673 5.82704L7.90595 6.55304C8.4588 6.74977 9.06714 6.46298 9.26471 5.9125C9.28413 5.85836 9.2991 5.80276 9.30943 5.7463L9.69794 3.623C9.73656 3.41189 9.8994 3.2449 10.1102 3.20021C10.727 3.0695 11.3593 3.00302 12 3.00302C12.6403 3.00302 13.2723 3.06943 13.8887 3.19997C14.0994 3.24461 14.2622 3.4115 14.301 3.62254L14.6905 5.74621C14.7959 6.32129 15.3494 6.70247 15.9271 6.59761C15.9839 6.58729 16.0397 6.57239 16.094 6.55307L18.1333 5.82704C18.3359 5.75488 18.5623 5.81156 18.7066 5.97059C19.5599 6.91103 20.2066 8.02073 20.5993 9.22964C20.6654 9.43358 20.6015 9.65717 20.4374 9.79589L18.7846 11.1932C18.3371 11.5715 18.2824 12.2395 18.6623 12.6851C18.6997 12.7289 18.7406 12.7696 18.7846 12.8068L20.4374 14.2041C20.6015 14.3428 20.6654 14.5664 20.5993 14.7704C20.2066 15.9794 19.5599 17.0891 18.7066 18.0294C18.5623 18.1884 18.3359 18.2451 18.1333 18.173L16.094 17.447C15.5413 17.2503 14.9329 17.5371 14.7353 18.0875C14.7159 18.1416 14.7009 18.1973 14.6905 18.254L14.301 20.3775C14.2622 20.5886 14.0994 20.7554 13.8887 20.8001C13.2723 20.9306 12.6403 20.997 12 20.997C11.3593 20.997 10.727 20.9306 10.1102 20.7998C9.8994 20.7551 9.73656 20.5881 9.69794 20.3771L9.30945 18.2538C9.20412 17.6787 8.65053 17.2976 8.07296 17.4024C8.01615 17.4128 7.96031 17.4276 7.90604 17.447L5.86673 18.173C5.66405 18.2451 5.43767 18.1884 5.29338 18.0294C4.44008 17.0891 3.79338 15.9794 3.4008 14.7704C3.33458 14.5664 3.39843 14.3428 3.56255 14.2041L5.2154 12.8068C5.66292 12.4285 5.71766 11.7605 5.33766 11.3149C5.3003 11.2711 5.25941 11.2304 5.21541 11.1932L3.56255 9.79589C3.39843 9.65717 3.33458 9.43358 3.4008 9.22964ZM9.37482 11.9999C9.37482 13.4497 10.5501 14.6249 11.9998 14.6249C13.4496 14.6249 14.6248 13.4497 14.6248 11.9999C14.6248 10.5502 13.4496 9.37492 11.9998 9.37492C10.5501 9.37492 9.37482 10.5502 9.37482 11.9999Z" fill="white"/>
</svg>
