<svg width="30" height="28" viewBox="0 0 30 28" fill="none" xmlns="http://www.w3.org/2000/svg">
<path d="M23.75 26.25H3.75C2.375 26.25 1.25 25.125 1.25 23.75V3.75C1.25 2.375 2.375 1.25 3.75 1.25H21.75C24.25 1.25 26.25 3.25 26.25 5.75V23.75C26.25 25.125 25.125 26.25 23.75 26.25Z" fill="#FEFBD8"/>
<path d="M26.7273 14.2545C26.0273 14.2545 25.4545 14.8273 25.4545 15.5273V23.7364C25.4545 24.6909 24.6909 25.4545 23.7364 25.4545H4.26364C3.30909 25.4545 2.54545 24.6909 2.54545 23.7364V4.26364C2.54545 3.30909 3.30909 2.54545 4.26364 2.54545H17.7545C18.4545 2.54545 19.0273 1.97273 19.0273 1.27273C19.0273 0.572727 18.4545 0 17.7545 0H4.26364C1.90909 0 0 1.90909 0 4.26364V23.7364C0 26.0909 1.90909 28 4.26364 28H23.7364C26.0909 28 28 26.0909 28 23.7364V15.5273C28 14.8273 27.4273 14.2545 26.7273 14.2545Z" fill="url(#paint0_linear_31_1063)"/>
<path d="M29 6L23.375 0.375C22.875 -0.125 22.125 -0.125 21.625 0.375C21.125 0.875 21.125 1.625 21.625 2.125L25.125 5.625H20C15.875 5.625 12.5 9 12.5 13.125V13.75C12.5 14.4375 13.0625 15 13.75 15C14.4375 15 15 14.4375 15 13.75V13.125C15 10.375 17.25 8.125 20 8.125H25.125L21.625 11.625C21.125 12.125 21.125 12.875 21.625 13.375C21.875 13.625 22.1875 13.75 22.5 13.75C22.8125 13.75 23.125 13.625 23.375 13.375L29 7.75C29.5 7.25 29.5 6.5 29 6Z" fill="url(#paint1_linear_31_1063)"/>
<defs>
<linearGradient id="paint0_linear_31_1063" x1="0" y1="14" x2="28" y2="14" gradientUnits="userSpaceOnUse">
<stop offset="0.002" stop-color="#034A7A"/>
<stop offset="1" stop-color="#002F49"/>
</linearGradient>
<linearGradient id="paint1_linear_31_1063" x1="12.5" y1="7.5" x2="29.375" y2="7.5" gradientUnits="userSpaceOnUse">
<stop offset="0.002" stop-color="#034A7A"/>
<stop offset="1" stop-color="#002F49"/>
</linearGradient>
</defs>
</svg>
