<svg width="24" height="24" viewBox="0 0 24 24" fill="none" xmlns="http://www.w3.org/2000/svg">
<path d="M16.8656 8.7885C17.0099 8.92537 17.0939 9.11394 17.0992 9.31274C17.1045 9.51154 17.0306 9.7043 16.8938 9.84863L11.9813 15.03C11.8059 15.2146 11.5948 15.3617 11.3609 15.4622C11.1269 15.5628 10.875 15.6148 10.6204 15.615H10.5754C10.3132 15.6083 10.0553 15.5468 9.81837 15.4344C9.58141 15.322 9.37059 15.1613 9.1995 14.9625L7.08225 12.5036C6.95241 12.3529 6.88777 12.1568 6.90254 11.9584C6.9173 11.76 7.01028 11.5756 7.161 11.4457C7.31173 11.3159 7.50786 11.2513 7.70625 11.266C7.90464 11.2808 8.08904 11.3738 8.21888 11.5245L10.3361 13.9841C10.3703 14.024 10.4124 14.0562 10.4598 14.0786C10.5073 14.101 10.5589 14.1132 10.6114 14.1143C10.664 14.1172 10.7166 14.1082 10.7653 14.088C10.814 14.0678 10.8575 14.0369 10.8926 13.9976L15.8051 8.81625C15.8729 8.74478 15.9541 8.68736 16.0441 8.64729C16.1341 8.60721 16.2311 8.58526 16.3296 8.58268C16.4281 8.5801 16.5261 8.59695 16.6181 8.63227C16.7101 8.66758 16.7942 8.72067 16.8656 8.7885ZM21.75 12C21.75 13.9284 21.1782 15.8134 20.1068 17.4168C19.0355 19.0202 17.5127 20.2699 15.7312 21.0078C13.9496 21.7458 11.9892 21.9389 10.0979 21.5627C8.20656 21.1865 6.46928 20.2579 5.10571 18.8943C3.74215 17.5307 2.81355 15.7934 2.43735 13.9021C2.06114 12.0108 2.25422 10.0504 2.99218 8.26884C3.73013 6.48726 4.97982 4.96451 6.58319 3.89317C8.18657 2.82183 10.0716 2.25 12 2.25C14.585 2.25298 17.0632 3.28116 18.891 5.109C20.7188 6.93683 21.747 9.41505 21.75 12ZM20.25 12C20.2482 10.3712 19.765 8.7793 18.8612 7.42428C17.9574 6.06925 16.6733 5.01157 15.1703 4.38412C14.5022 4.21179 13.815 4.12472 13.125 4.125C11.2166 4.12667 9.36786 4.78987 7.89359 6.00166C6.41933 7.21344 5.41076 8.89885 5.03967 10.7708C4.66859 12.6427 4.95795 14.5854 5.85847 16.268C6.75899 17.9505 8.21496 19.2688 9.97838 19.9984C11.1956 20.306 12.467 20.3318 13.6958 20.0737C14.9245 19.8157 16.0781 19.2806 17.0687 18.5092C18.0593 17.7378 18.8608 16.7505 19.4121 15.6225C19.9634 14.4945 20.25 13.2555 20.25 12Z" fill="#26264F"/>
</svg>
