<svg width="35" height="28" viewBox="0 0 35 28" fill="none" xmlns="http://www.w3.org/2000/svg">
<path d="M32.6146 21.3669V9.75888C32.6146 9.38616 32.4665 9.02871 32.2029 8.76516C31.9394 8.50161 31.5819 8.35355 31.2092 8.35355C30.8365 8.35355 30.4791 8.50161 30.2155 8.76516C29.952 9.02871 29.8039 9.38616 29.8039 9.75888V21.3669C29.2624 21.6738 28.8381 22.1516 28.5975 22.7256C28.3569 23.2995 28.3135 23.9371 28.4743 24.5383C28.635 25.1395 28.9908 25.6704 29.4858 26.0476C29.9807 26.4249 30.5869 26.6272 31.2092 26.6229H31.406C32.012 26.5865 32.59 26.3549 33.0534 25.9627C33.5168 25.5705 33.8408 25.0388 33.9769 24.4471C34.1129 23.8554 34.0537 23.2356 33.8082 22.6804C33.5626 22.1251 33.1438 21.6643 32.6146 21.3669Z" fill="#9A00FF"/>
<path d="M17.1554 13.8484L5.91273 9.53403V22.4771C5.89996 23.0853 6.08484 23.6812 6.43961 24.1753C6.79437 24.6695 7.29987 25.0352 7.88019 25.2176L16.3122 27.8596C16.8587 28.047 17.4521 28.047 17.9986 27.8596L26.4306 25.2176C27.0109 25.0352 27.5164 24.6695 27.8712 24.1753C28.2259 23.6812 28.4108 23.0853 28.398 22.4771V9.53403L17.1554 13.8484Z" fill="#9A00FF"/>
<path d="M32.5161 5.71141L18.1677 0.188449C17.5165 -0.0628162 16.7951 -0.0628162 16.144 0.188449L1.79554 5.71141C1.26681 5.91619 0.812384 6.27609 0.491934 6.74385C0.171485 7.21161 0 7.76535 0 8.33235C0 8.89935 0.171485 9.45309 0.491934 9.92085C0.812384 10.3886 1.26681 10.7485 1.79554 10.9533L16.144 16.4763C16.7966 16.7197 17.5151 16.7197 18.1677 16.4763L32.5161 10.9533C33.0448 10.7485 33.4993 10.3886 33.8197 9.92085C34.1402 9.45309 34.3117 8.89935 34.3117 8.33235C34.3117 7.76535 34.1402 7.21161 33.8197 6.74385C33.4993 6.27609 33.0448 5.91619 32.5161 5.71141Z" fill="#FEFBD8"/>
</svg>
