<svg width="24" height="24" viewBox="0 0 24 24" fill="none" xmlns="http://www.w3.org/2000/svg">
<g clip-path="url(#clip0_10_181)">
<path d="M13.5 4.5H3.75C2.50736 4.5 1.5 5.50736 1.5 6.75V17.25C1.5 18.4926 2.50736 19.5 3.75 19.5H13.5C14.7426 19.5 15.75 18.4926 15.75 17.25V6.75C15.75 5.50736 14.7426 4.5 13.5 4.5Z" fill="white"/>
<path d="M21.855 7.35C21.6557 7.21262 21.4263 7.12522 21.1861 7.0952C20.9459 7.06517 20.702 7.0934 20.475 7.1775L17.25 8.385V15.615L20.475 16.8225C20.6432 16.8844 20.8207 16.9174 21 16.92C21.3974 16.9186 21.7781 16.7601 22.0591 16.4791C22.3401 16.1981 22.4986 15.8174 22.5 15.42V8.58C22.5 8.33809 22.4414 8.09978 22.329 7.88554C22.2167 7.6713 22.054 7.48752 21.855 7.35Z" fill="#9A00FF"/>
</g>
<defs>
<clipPath id="clip0_10_181">
<rect width="24" height="24" fill="white"/>
</clipPath>
</defs>
</svg>
