<svg width="50" height="50" viewBox="0 0 50 50" fill="none" xmlns="http://www.w3.org/2000/svg">
<rect width="50" height="50" rx="10" fill="#161B22"/>
<path d="M34.0853 20.3623C33.8672 19.5308 33.2246 18.876 32.4088 18.6538C30.93 18.25 25.0001 18.25 25.0001 18.25C25.0001 18.25 19.0702 18.25 17.5913 18.6538C16.7755 18.8761 16.1329 19.5308 15.9148 20.3623C15.5186 21.8693 15.5186 25.0136 15.5186 25.0136C15.5186 25.0136 15.5186 28.1579 15.9148 29.665C16.1329 30.4964 16.7755 31.124 17.5913 31.3462C19.0702 31.75 25.0001 31.75 25.0001 31.75C25.0001 31.75 30.9299 31.75 32.4088 31.3462C33.2246 31.124 33.8672 30.4964 34.0853 29.665C34.4816 28.1579 34.4816 25.0136 34.4816 25.0136C34.4816 25.0136 34.4816 21.8693 34.0853 20.3623ZM23.0606 27.8684V22.1588L28.0169 25.0137L23.0606 27.8684Z" fill="white"/>
</svg>
